<svg width="73" height="75" viewBox="0 0 73 75" fill="none" xmlns="http://www.w3.org/2000/svg">
<mask id="path-1-outside-1_10_784" maskUnits="userSpaceOnUse" x="0" y="0" width="73" height="75" fill="black">
<rect fill="white" width="73" height="75"/>
<path fill-rule="evenodd" clip-rule="evenodd" d="M69.5956 60.3667C69.2499 59.6484 68.387 59.3465 67.6693 59.6926C66.9512 60.0382 66.6493 60.9006 66.9951 61.6187C68.2473 64.2193 68.8823 67.0136 68.8823 69.9239V70.4149C68.8823 70.6331 68.7047 70.8106 68.4866 70.8106H9.40303C9.18474 70.8106 9.00729 70.6331 9.00729 70.4149V69.9239C9.00729 59.3527 17.6075 50.7523 28.179 50.7523H49.7108C55.0457 50.7523 60.0002 52.8907 63.6615 56.7738C64.2085 57.3537 65.1218 57.3805 65.7015 56.8337C66.2813 56.2869 66.3082 55.3737 65.7614 54.7937C61.8252 50.6193 56.5899 48.1982 50.9125 47.8984V40.6446C51.3869 40.1907 51.8373 39.7121 52.2552 39.205C52.7666 39.4577 53.3365 39.6121 53.9648 39.6583C54.0683 39.6658 54.1717 39.6697 54.275 39.6697C55.8483 39.6697 57.3805 38.789 58.6199 37.1628C59.7183 35.7215 60.4513 33.8177 60.5798 32.0704C60.8106 28.9374 59.0482 26.6627 56.0216 26.0452V18.6938C56.0216 17.5584 56.2988 16.393 56.8237 15.3235C57.5069 13.9308 57.8533 12.4344 57.8533 10.8753C57.8535 6.21342 54.7083 2.17582 50.2048 1.0566C49.3199 0.836958 48.388 1.27201 47.9897 2.09336C47.0797 3.97344 45.2183 5.14122 43.1319 5.14122H32.4458C32.4282 5.14122 32.4107 5.14184 32.3932 5.14247C32.3772 5.14305 32.3611 5.14363 32.3449 5.14372C27.2354 5.17275 25.7403 7.17702 24.5077 8.82932C24.4101 8.96023 24.3141 9.08893 24.218 9.21427L23.1061 11.0165C22.4511 12.3748 22.0836 13.8969 22.0836 15.503V23.2452C20.444 22.2281 19.4446 20.4667 19.4446 18.5387V15.5292C19.4446 11.9392 16.4655 9.01855 12.8036 9.01855C12.261 9.01855 11.8212 9.44973 11.8212 9.98165V13.3409H11.3555C9.2955 13.3409 7.42583 14.4246 6.42605 16.15H4.17413C3.23585 16.15 2.35111 16.5535 1.74674 17.257C1.14218 17.9604 0.886959 18.8837 1.0465 19.7902L1.41008 21.8579C1.80362 24.0957 3.77056 25.72 6.08683 25.72H9.53904V29.4659C9.53904 33.0171 10.2176 36.4825 11.5563 39.7712L9.28676 48.2803L8.59889 48.9863C7.93588 49.667 7.75856 50.6273 8.13619 51.4926C8.51372 52.3578 9.34452 52.8953 10.3045 52.8953H14.174C13.6124 53.358 13.074 53.8479 12.5609 54.3629C12.5211 54.3562 11.9159 55.1021 11.3219 55.8344L11.3218 55.8344C10.7516 56.5372 10.1916 57.2275 10.1516 57.2275C7.6139 60.8201 6.12109 65.2008 6.12109 69.9237V70.4147C6.12109 72.2244 7.59328 73.6966 9.40303 73.6966H68.4864C70.2961 73.6966 71.7683 72.2244 71.7683 70.4147V69.9237C71.7683 66.5767 71.0373 63.361 69.5956 60.3667ZM21.6221 25.2037C21.797 25.2533 21.9501 25.2834 22.0836 25.2967V26.0049C18.9252 26.5567 17.0732 28.8638 17.3093 32.0704C17.3831 33.0726 17.6568 34.1258 18.0832 35.1141C17.9077 35.2881 17.7992 35.5274 17.7992 35.7914V40.2452L13.5773 50.9694H10.3046C10.0786 50.9694 9.98082 50.8227 9.9426 50.7352C9.90439 50.6479 9.86372 50.4772 10.0198 50.3169L10.8832 49.4305C10.9985 49.3122 11.081 49.1672 11.1232 49.009L13.5396 39.9493C13.5935 39.7466 13.5788 39.5321 13.4973 39.3384C12.1745 36.1942 11.5037 32.8727 11.5037 29.466V24.757C11.5037 24.2251 11.0638 23.7939 10.5213 23.7939C10.5155 23.7939 10.5098 23.7943 10.5042 23.7947L10.5041 23.7947C10.5014 23.7949 10.4987 23.7951 10.496 23.7952C10.4943 23.7953 10.4926 23.7954 10.4909 23.7954L10.4787 23.7947C10.4726 23.7943 10.4666 23.7939 10.4604 23.7939H6.08683C4.72947 23.7939 3.57693 22.8421 3.34617 21.5307L2.98259 19.4631C2.92188 19.1178 3.01914 18.766 3.24941 18.498C3.47968 18.23 3.81673 18.0763 4.17413 18.0763H7.03523C7.43015 18.0763 7.78656 17.8445 7.9402 17.4878C8.52129 16.1388 9.86185 15.2671 11.3555 15.2671H12.8036C13.3461 15.2671 13.786 14.8359 13.786 14.304V11.0464C15.8943 11.4901 17.4799 13.3316 17.4799 15.5291V18.5388C17.4799 21.3573 19.067 23.9112 21.6221 25.2037ZM19.764 40.4246V37.6813C19.9229 37.918 20.0378 38.0714 20.0708 38.0695C21.1423 39.1125 22.3651 39.6697 23.6144 39.6697C23.7177 39.6697 23.8211 39.6658 23.9248 39.6583C24.6122 39.6076 25.2386 39.4279 25.7891 39.1269C26.1621 39.5849 26.5582 40.0232 26.9773 40.4386V47.8992C23.3139 48.0968 19.8852 49.1924 16.9081 50.9692H15.6833L19.6981 40.7714C19.7417 40.6608 19.764 40.5432 19.764 40.4246ZM20.1882 31.8584C20.276 33.0522 20.8037 34.4142 21.5652 35.4134C22.2543 36.3174 23.0576 36.8266 23.7129 36.78C23.8737 36.7681 24.0165 36.7407 24.1473 36.7002C22.8701 34.3973 22.1295 31.759 22.09 28.9535C20.7141 29.3418 20.0745 30.3149 20.1882 31.8584ZM29.8635 47.8661H48.0261V42.8599C45.5372 44.3649 42.6217 45.2325 39.507 45.2325H38.5984C35.3925 45.2325 32.3992 44.3111 29.8635 42.7239V47.8661ZM56.3244 35.4132C57.0859 34.4142 57.6136 33.052 57.7015 31.8584C57.809 30.3984 57.2402 29.4504 56.0139 29.0233C55.9628 31.8218 55.2139 34.4518 53.9315 36.7467C54.007 36.7609 54.0868 36.7731 54.1767 36.7796C54.8305 36.8282 55.6357 36.317 56.3244 35.4132ZM50.1968 4.06515C48.7047 6.4953 46.0133 8.02722 43.1321 8.02722H32.446C28.324 8.02741 24.9704 11.3812 24.9704 15.5032V28.7183C24.9704 36.2328 31.0839 42.3464 38.5986 42.3464H39.5072C47.0219 42.3464 53.1354 36.2328 53.1354 28.7183V18.6938C53.1354 17.1201 53.5147 15.515 54.2326 14.052C54.7203 13.0586 54.9673 11.9897 54.9673 10.8751C54.9675 7.78523 53.0386 5.07975 50.1968 4.06515ZM10.0728 18.5388C10.0728 18.7921 10.178 19.0405 10.3607 19.2197C10.5444 19.3988 10.7969 19.5019 11.0552 19.5019C11.3136 19.5019 11.567 19.3988 11.7498 19.2197C11.9334 19.0405 12.0376 18.7921 12.0376 18.5388C12.0376 18.2855 11.9334 18.037 11.7498 17.8579C11.567 17.6787 11.3146 17.5757 11.0552 17.5757C10.7969 17.5757 10.5434 17.6787 10.3607 17.8579C10.1779 18.037 10.0728 18.2855 10.0728 18.5388Z"/>
</mask>
<path fill-rule="evenodd" clip-rule="evenodd" d="M69.5956 60.3667C69.2499 59.6484 68.387 59.3465 67.6693 59.6926C66.9512 60.0382 66.6493 60.9006 66.9951 61.6187C68.2473 64.2193 68.8823 67.0136 68.8823 69.9239V70.4149C68.8823 70.6331 68.7047 70.8106 68.4866 70.8106H9.40303C9.18474 70.8106 9.00729 70.6331 9.00729 70.4149V69.9239C9.00729 59.3527 17.6075 50.7523 28.179 50.7523H49.7108C55.0457 50.7523 60.0002 52.8907 63.6615 56.7738C64.2085 57.3537 65.1218 57.3805 65.7015 56.8337C66.2813 56.2869 66.3082 55.3737 65.7614 54.7937C61.8252 50.6193 56.5899 48.1982 50.9125 47.8984V40.6446C51.3869 40.1907 51.8373 39.7121 52.2552 39.205C52.7666 39.4577 53.3365 39.6121 53.9648 39.6583C54.0683 39.6658 54.1717 39.6697 54.275 39.6697C55.8483 39.6697 57.3805 38.789 58.6199 37.1628C59.7183 35.7215 60.4513 33.8177 60.5798 32.0704C60.8106 28.9374 59.0482 26.6627 56.0216 26.0452V18.6938C56.0216 17.5584 56.2988 16.393 56.8237 15.3235C57.5069 13.9308 57.8533 12.4344 57.8533 10.8753C57.8535 6.21342 54.7083 2.17582 50.2048 1.0566C49.3199 0.836958 48.388 1.27201 47.9897 2.09336C47.0797 3.97344 45.2183 5.14122 43.1319 5.14122H32.4458C32.4282 5.14122 32.4107 5.14184 32.3932 5.14247C32.3772 5.14305 32.3611 5.14363 32.3449 5.14372C27.2354 5.17275 25.7403 7.17702 24.5077 8.82932C24.4101 8.96023 24.3141 9.08893 24.218 9.21427L23.1061 11.0165C22.4511 12.3748 22.0836 13.8969 22.0836 15.503V23.2452C20.444 22.2281 19.4446 20.4667 19.4446 18.5387V15.5292C19.4446 11.9392 16.4655 9.01855 12.8036 9.01855C12.261 9.01855 11.8212 9.44973 11.8212 9.98165V13.3409H11.3555C9.2955 13.3409 7.42583 14.4246 6.42605 16.15H4.17413C3.23585 16.15 2.35111 16.5535 1.74674 17.257C1.14218 17.9604 0.886959 18.8837 1.0465 19.7902L1.41008 21.8579C1.80362 24.0957 3.77056 25.72 6.08683 25.72H9.53904V29.4659C9.53904 33.0171 10.2176 36.4825 11.5563 39.7712L9.28676 48.2803L8.59889 48.9863C7.93588 49.667 7.75856 50.6273 8.13619 51.4926C8.51372 52.3578 9.34452 52.8953 10.3045 52.8953H14.174C13.6124 53.358 13.074 53.8479 12.5609 54.3629C12.5211 54.3562 11.9159 55.1021 11.3219 55.8344L11.3218 55.8344C10.7516 56.5372 10.1916 57.2275 10.1516 57.2275C7.6139 60.8201 6.12109 65.2008 6.12109 69.9237V70.4147C6.12109 72.2244 7.59328 73.6966 9.40303 73.6966H68.4864C70.2961 73.6966 71.7683 72.2244 71.7683 70.4147V69.9237C71.7683 66.5767 71.0373 63.361 69.5956 60.3667ZM21.6221 25.2037C21.797 25.2533 21.9501 25.2834 22.0836 25.2967V26.0049C18.9252 26.5567 17.0732 28.8638 17.3093 32.0704C17.3831 33.0726 17.6568 34.1258 18.0832 35.1141C17.9077 35.2881 17.7992 35.5274 17.7992 35.7914V40.2452L13.5773 50.9694H10.3046C10.0786 50.9694 9.98082 50.8227 9.9426 50.7352C9.90439 50.6479 9.86372 50.4772 10.0198 50.3169L10.8832 49.4305C10.9985 49.3122 11.081 49.1672 11.1232 49.009L13.5396 39.9493C13.5935 39.7466 13.5788 39.5321 13.4973 39.3384C12.1745 36.1942 11.5037 32.8727 11.5037 29.466V24.757C11.5037 24.2251 11.0638 23.7939 10.5213 23.7939C10.5155 23.7939 10.5098 23.7943 10.5042 23.7947L10.5041 23.7947C10.5014 23.7949 10.4987 23.7951 10.496 23.7952C10.4943 23.7953 10.4926 23.7954 10.4909 23.7954L10.4787 23.7947C10.4726 23.7943 10.4666 23.7939 10.4604 23.7939H6.08683C4.72947 23.7939 3.57693 22.8421 3.34617 21.5307L2.98259 19.4631C2.92188 19.1178 3.01914 18.766 3.24941 18.498C3.47968 18.23 3.81673 18.0763 4.17413 18.0763H7.03523C7.43015 18.0763 7.78656 17.8445 7.9402 17.4878C8.52129 16.1388 9.86185 15.2671 11.3555 15.2671H12.8036C13.3461 15.2671 13.786 14.8359 13.786 14.304V11.0464C15.8943 11.4901 17.4799 13.3316 17.4799 15.5291V18.5388C17.4799 21.3573 19.067 23.9112 21.6221 25.2037ZM19.764 40.4246V37.6813C19.9229 37.918 20.0378 38.0714 20.0708 38.0695C21.1423 39.1125 22.3651 39.6697 23.6144 39.6697C23.7177 39.6697 23.8211 39.6658 23.9248 39.6583C24.6122 39.6076 25.2386 39.4279 25.7891 39.1269C26.1621 39.5849 26.5582 40.0232 26.9773 40.4386V47.8992C23.3139 48.0968 19.8852 49.1924 16.9081 50.9692H15.6833L19.6981 40.7714C19.7417 40.6608 19.764 40.5432 19.764 40.4246ZM20.1882 31.8584C20.276 33.0522 20.8037 34.4142 21.5652 35.4134C22.2543 36.3174 23.0576 36.8266 23.7129 36.78C23.8737 36.7681 24.0165 36.7407 24.1473 36.7002C22.8701 34.3973 22.1295 31.759 22.09 28.9535C20.7141 29.3418 20.0745 30.3149 20.1882 31.8584ZM29.8635 47.8661H48.0261V42.8599C45.5372 44.3649 42.6217 45.2325 39.507 45.2325H38.5984C35.3925 45.2325 32.3992 44.3111 29.8635 42.7239V47.8661ZM56.3244 35.4132C57.0859 34.4142 57.6136 33.052 57.7015 31.8584C57.809 30.3984 57.2402 29.4504 56.0139 29.0233C55.9628 31.8218 55.2139 34.4518 53.9315 36.7467C54.007 36.7609 54.0868 36.7731 54.1767 36.7796C54.8305 36.8282 55.6357 36.317 56.3244 35.4132ZM50.1968 4.06515C48.7047 6.4953 46.0133 8.02722 43.1321 8.02722H32.446C28.324 8.02741 24.9704 11.3812 24.9704 15.5032V28.7183C24.9704 36.2328 31.0839 42.3464 38.5986 42.3464H39.5072C47.0219 42.3464 53.1354 36.2328 53.1354 28.7183V18.6938C53.1354 17.1201 53.5147 15.515 54.2326 14.052C54.7203 13.0586 54.9673 11.9897 54.9673 10.8751C54.9675 7.78523 53.0386 5.07975 50.1968 4.06515ZM10.0728 18.5388C10.0728 18.7921 10.178 19.0405 10.3607 19.2197C10.5444 19.3988 10.7969 19.5019 11.0552 19.5019C11.3136 19.5019 11.567 19.3988 11.7498 19.2197C11.9334 19.0405 12.0376 18.7921 12.0376 18.5388C12.0376 18.2855 11.9334 18.037 11.7498 17.8579C11.567 17.6787 11.3146 17.5757 11.0552 17.5757C10.7969 17.5757 10.5434 17.6787 10.3607 17.8579C10.1779 18.037 10.0728 18.2855 10.0728 18.5388Z" fill="white"/>
<path d="M67.6693 59.6926L67.8428 60.053L67.843 60.0529L67.6693 59.6926ZM69.5956 60.3667L69.2351 60.5402L69.2352 60.5402L69.5956 60.3667ZM66.9951 61.6187L67.3555 61.4452L67.3555 61.4451L66.9951 61.6187ZM63.6615 56.7738L63.3705 57.0482L63.3705 57.0482L63.6615 56.7738ZM65.7614 54.7937L66.0525 54.5193L66.0525 54.5193L65.7614 54.7937ZM50.9125 47.8984H50.5125V48.2779L50.8914 48.2979L50.9125 47.8984ZM50.9125 40.6446L50.636 40.3556L50.5125 40.4737V40.6446H50.9125ZM52.2552 39.2049L52.4325 38.8464L52.1482 38.7058L51.9466 38.9506L52.2552 39.2049ZM53.9648 39.6583L53.9354 40.0572L53.9358 40.0573L53.9648 39.6583ZM58.6199 37.1628L58.938 37.4053L58.9381 37.4053L58.6199 37.1628ZM60.5798 32.0704L60.1809 32.041L60.1808 32.041L60.5798 32.0704ZM56.0216 26.0452H55.6216V26.3718L55.9416 26.4371L56.0216 26.0452ZM56.8237 15.3235L57.1827 15.4997L57.1828 15.4996L56.8237 15.3235ZM57.8533 10.8753L57.4533 10.8753V10.8753H57.8533ZM50.2048 1.0566L50.3013 0.668412L50.3012 0.668383L50.2048 1.0566ZM47.9897 2.09336L47.6298 1.91885L47.6297 1.9191L47.9897 2.09336ZM32.3932 5.14248L32.4076 5.54222H32.4076L32.3932 5.14248ZM32.3449 5.14372L32.3426 4.74373H32.3426L32.3449 5.14372ZM24.5077 8.82932L24.1871 8.59015V8.59015L24.5077 8.82932ZM24.218 9.21427L23.9005 8.971L23.8882 8.98704L23.8776 9.00424L24.218 9.21427ZM23.1061 11.0165L22.7657 10.8065L22.7548 10.8241L22.7459 10.8427L23.1061 11.0165ZM22.0836 23.2452L21.8728 23.5851L22.4836 23.964V23.2452H22.0836ZM11.8212 13.3409V13.7409H12.2212V13.3409H11.8212ZM6.42606 16.15V16.55H6.65658L6.77215 16.3505L6.42606 16.15ZM1.74675 17.257L2.05011 17.5177L2.05015 17.5176L1.74675 17.257ZM1.0465 19.7902L1.44046 19.7209L1.44045 19.7209L1.0465 19.7902ZM1.41008 21.8579L1.01613 21.9271L1.01613 21.9271L1.41008 21.8579ZM9.53904 25.72H9.93904V25.32H9.53904V25.72ZM11.5563 39.7712L11.9428 39.8743L11.9773 39.7447L11.9268 39.6204L11.5563 39.7712ZM9.28676 48.2803L9.57327 48.5594L9.64629 48.4845L9.67325 48.3834L9.28676 48.2803ZM8.5989 48.9863L8.31239 48.7072L8.31235 48.7072L8.5989 48.9863ZM8.13619 51.4926L8.50281 51.3326L8.5028 51.3326L8.13619 51.4926ZM14.174 52.8953L14.4283 53.2041L15.2885 52.4953H14.174V52.8953ZM12.5609 54.3629L12.4947 54.7574L12.6984 54.7916L12.8443 54.6452L12.5609 54.3629ZM11.3219 55.8343L11.0113 55.5822L11.0067 55.588L11.3219 55.8343ZM11.3219 55.8344L11.6326 56.0864L11.6371 56.0806L11.3219 55.8344ZM10.1516 57.2275V56.8275H9.94438L9.82485 56.9967L10.1516 57.2275ZM22.0836 25.2967H22.4836V24.9345L22.1232 24.8987L22.0836 25.2967ZM21.6221 25.2037L21.4416 25.5606L21.4759 25.578L21.5129 25.5885L21.6221 25.2037ZM22.0836 26.0049L22.1525 26.3989L22.4836 26.3411V26.0049H22.0836ZM17.3093 32.0704L16.9103 32.0997L16.9103 32.0998L17.3093 32.0704ZM18.0832 35.1141L18.3648 35.3983L18.5586 35.2062L18.4505 34.9557L18.0832 35.1141ZM17.7992 40.2452L18.1714 40.3917L18.1992 40.3211V40.2452H17.7992ZM13.5773 50.9694V51.3694H13.8497L13.9495 51.116L13.5773 50.9694ZM9.94261 50.7352L10.3091 50.575L10.3091 50.5749L9.94261 50.7352ZM10.0198 50.3169L10.3064 50.596L10.3064 50.596L10.0198 50.3169ZM10.8832 49.4305L10.5968 49.1514L10.5967 49.1514L10.8832 49.4305ZM11.1232 49.009L11.5097 49.1121L11.5097 49.112L11.1232 49.009ZM13.5396 39.9493L13.9261 40.0524L13.9262 40.0522L13.5396 39.9493ZM13.4973 39.3384L13.1286 39.4935L13.1286 39.4936L13.4973 39.3384ZM10.5152 23.794L10.5314 24.1937L10.5315 24.1937L10.5152 23.794ZM10.5041 23.7947L10.5319 24.1937L10.532 24.1937L10.5041 23.7947ZM10.4969 23.7952L10.52 24.1945L10.5202 24.1945L10.4969 23.7952ZM10.4909 23.7954L10.4676 24.1947L10.4849 24.1957L10.5022 24.1953L10.4909 23.7954ZM10.4787 23.7947L10.4513 24.1938L10.4554 24.194L10.4787 23.7947ZM3.34617 21.5307L2.95222 21.6L2.95222 21.6L3.34617 21.5307ZM2.98259 19.4631L2.58863 19.5324L2.58864 19.5324L2.98259 19.4631ZM3.24941 18.498L3.55282 18.7587L3.55282 18.7587L3.24941 18.498ZM7.94021 17.4878L8.30757 17.6461L8.30758 17.6461L7.94021 17.4878ZM13.786 11.0464L13.8684 10.655L13.386 10.5535V11.0464H13.786ZM19.764 37.6813L20.0961 37.4584L19.364 36.3676V37.6813H19.764ZM20.0708 38.0695L20.3498 37.7829L20.224 37.6604L20.0487 37.6702L20.0708 38.0695ZM23.9248 39.6583L23.9537 40.0573L23.9542 40.0572L23.9248 39.6583ZM25.7891 39.1269L26.0992 38.8743L25.8891 38.6163L25.5972 38.776L25.7891 39.1269ZM26.9773 40.4386H27.3773V40.2719L27.2589 40.1545L26.9773 40.4386ZM26.9773 47.8992L26.9988 48.2986L27.3773 48.2782V47.8992H26.9773ZM16.9081 50.9692V51.3693H17.0184L17.1131 51.3127L16.9081 50.9692ZM15.6833 50.9692L15.3111 50.8227L15.0959 51.3693H15.6833V50.9692ZM19.6981 40.7714L19.326 40.6247L19.3259 40.6249L19.6981 40.7714ZM21.5652 35.4134L21.247 35.6558L21.2471 35.6559L21.5652 35.4134ZM20.1882 31.8584L20.5871 31.8291V31.829L20.1882 31.8584ZM23.7129 36.78L23.7413 37.179L23.7425 37.1789L23.7129 36.78ZM24.1473 36.7002L24.2655 37.0824L24.736 36.9369L24.4971 36.5062L24.1473 36.7002ZM22.09 28.9535L22.49 28.9479L22.4826 28.4271L21.9814 28.5686L22.09 28.9535ZM48.0261 47.8661V48.2661H48.4261V47.8661H48.0261ZM29.8635 47.8661H29.4635V48.2661H29.8635V47.8661ZM48.0261 42.8599H48.4261V42.1506L47.8192 42.5176L48.0261 42.8599ZM29.8635 42.7239L30.0757 42.3848L29.4635 42.0016V42.7239H29.8635ZM57.7015 31.8584L57.3025 31.8291V31.8291L57.7015 31.8584ZM56.3245 35.4132L56.0063 35.1707L56.0063 35.1707L56.3245 35.4132ZM56.0139 29.0233L56.1454 28.6455L55.624 28.4639L55.6139 29.016L56.0139 29.0233ZM53.9315 36.7467L53.5823 36.5515L53.3112 37.0366L53.8573 37.1397L53.9315 36.7467ZM54.1768 36.7796L54.2064 36.3807L54.2058 36.3807L54.1768 36.7796ZM50.1968 4.06515L50.3312 3.68844L50.0257 3.57934L49.8559 3.85586L50.1968 4.06515ZM32.446 8.02722V7.62722H32.446L32.446 8.02722ZM54.2326 14.052L53.8736 13.8758L53.8735 13.8758L54.2326 14.052ZM54.9673 10.8751L54.5673 10.8751V10.8751H54.9673ZM10.3607 19.2197L10.0806 19.5052L10.0814 19.5061L10.3607 19.2197ZM11.7498 19.2197L11.4704 18.9334L11.4697 18.934L11.7498 19.2197ZM11.7498 17.8579L11.4697 18.1435L11.4704 18.1442L11.7498 17.8579ZM10.3607 17.8579L10.0806 17.5722V17.5722L10.3607 17.8579ZM67.843 60.0529C68.3615 59.8029 68.9853 60.021 69.2351 60.5402L69.956 60.1933C69.5146 59.2759 68.4124 58.8902 67.4955 59.3322L67.843 60.0529ZM67.3555 61.4451C67.1055 60.9261 67.3237 60.3028 67.8428 60.053L67.4958 59.3321C66.5786 59.7736 66.193 60.8751 66.6347 61.7922L67.3555 61.4451ZM69.2823 69.9239C69.2823 66.9541 68.634 64.1004 67.3555 61.4452L66.6347 61.7922C67.8606 64.3383 68.4823 67.0732 68.4823 69.9239H69.2823ZM69.2823 70.4149V69.9239H68.4823V70.4149H69.2823ZM68.4866 71.2106C68.9254 71.2106 69.2823 70.8542 69.2823 70.4149H68.4823C68.4823 70.4149 68.4823 70.4147 68.4824 70.4141C68.4825 70.4136 68.4827 70.4131 68.4829 70.4127C68.483 70.4123 68.4832 70.412 68.4833 70.4119C68.4834 70.4118 68.4834 70.4117 68.4834 70.4117C68.4835 70.4117 68.4835 70.4116 68.4836 70.4115C68.4838 70.4114 68.484 70.4113 68.4844 70.4111C68.4848 70.411 68.4853 70.4108 68.4858 70.4107C68.4864 70.4106 68.4866 70.4106 68.4866 70.4106V71.2106ZM9.40304 71.2106H68.4866V70.4106H9.40304V71.2106ZM8.60729 70.4149C8.60729 70.8541 8.96384 71.2106 9.40304 71.2106V70.4106C9.40291 70.4106 9.40318 70.4106 9.4037 70.4107C9.40419 70.4108 9.40468 70.4109 9.4051 70.4111C9.40587 70.4114 9.40613 70.4117 9.40614 70.4117C9.40615 70.4117 9.40643 70.412 9.40676 70.4128C9.40694 70.4132 9.40709 70.4137 9.40719 70.4142C9.4073 70.4147 9.40729 70.415 9.40729 70.4149H8.60729ZM8.60729 69.9239V70.4149H9.40729V69.9239H8.60729ZM28.179 50.3523C17.3866 50.3523 8.60729 59.1318 8.60729 69.9239H9.40729C9.40729 59.5736 17.8284 51.1523 28.179 51.1523V50.3523ZM49.7108 50.3523H28.179V51.1523H49.7108V50.3523ZM63.9526 56.4994C60.2157 52.5362 55.1559 50.3523 49.7108 50.3523V51.1523C54.9355 51.1523 59.7847 53.2452 63.3705 57.0482L63.9526 56.4994ZM65.4271 56.5427C65.0081 56.9379 64.348 56.9186 63.9525 56.4993L63.3705 57.0482C64.069 57.7888 65.2355 57.8231 65.976 57.1247L65.4271 56.5427ZM65.4704 55.0681C65.8656 55.4873 65.8462 56.1474 65.4271 56.5427L65.976 57.1247C66.7164 56.4264 66.7509 55.26 66.0525 54.5193L65.4704 55.0681ZM50.8914 48.2979C56.4658 48.5922 61.6045 50.9683 65.4704 55.0681L66.0525 54.5193C62.0459 50.2703 56.7141 47.8042 50.9336 47.499L50.8914 48.2979ZM50.5125 40.6446V47.8984H51.3125V40.6446H50.5125ZM51.9466 38.9506C51.5398 39.4442 51.1003 39.9113 50.636 40.3556L51.1891 40.9336C51.6735 40.47 52.1349 39.98 52.5639 39.4593L51.9466 38.9506ZM53.9942 39.2594C53.4141 39.2167 52.8948 39.0749 52.4325 38.8464L52.078 39.5635C52.6383 39.8405 53.2589 40.0074 53.9354 40.0572L53.9942 39.2594ZM54.275 39.2697C54.1817 39.2697 54.0879 39.2662 53.9938 39.2594L53.9358 40.0573C54.0487 40.0654 54.1618 40.0697 54.275 40.0697V39.2697ZM58.3018 36.9204C57.1138 38.479 55.6884 39.2697 54.275 39.2697V40.0697C56.0083 40.0697 57.6471 39.099 58.938 37.4053L58.3018 36.9204ZM60.1808 32.041C60.0582 33.7082 59.3549 35.5384 58.3018 36.9204L58.9381 37.4053C60.0818 35.9045 60.8443 33.9272 60.9787 32.0997L60.1808 32.041ZM55.9416 26.4371C57.374 26.7294 58.4807 27.4071 59.204 28.3568C59.927 29.3062 60.2901 30.558 60.1809 32.041L60.9787 32.0998C61.1003 30.4497 60.6976 28.9977 59.8405 27.8721C58.9836 26.7469 57.6957 25.9785 56.1015 25.6533L55.9416 26.4371ZM55.6216 18.6938V26.0452H56.4216V18.6938H55.6216ZM56.4646 15.1472C55.9142 16.2689 55.6216 17.4944 55.6216 18.6938H56.4216C56.4216 17.6225 56.6835 16.5171 57.1827 15.4997L56.4646 15.1472ZM57.4533 10.8753C57.4533 12.3736 57.1207 13.8098 56.4645 15.1473L57.1828 15.4996C57.893 14.0519 58.2533 12.4951 58.2533 10.8753H57.4533ZM50.1084 1.44479C54.4323 2.5194 57.4535 6.39595 57.4533 10.8753L58.2533 10.8753C58.2535 6.0309 54.9843 1.83225 50.3013 0.668412L50.1084 1.44479ZM48.3496 2.26788C48.6652 1.61698 49.4067 1.27063 50.1085 1.44482L50.3012 0.668383C49.2332 0.403291 48.1107 0.927037 47.6298 1.91885L48.3496 2.26788ZM43.1319 5.54122C45.3719 5.54122 47.373 4.28557 48.3498 2.26763L47.6297 1.9191C46.7864 3.66131 45.0648 4.74122 43.1319 4.74122V5.54122ZM32.4458 5.54122H43.1319V4.74122H32.4458V5.54122ZM32.4076 5.54222C32.4262 5.54155 32.4365 5.54122 32.4458 5.54122V4.74122C32.4198 4.74122 32.3952 4.74215 32.3788 4.74273L32.4076 5.54222ZM32.3471 5.54372C32.3704 5.54358 32.3925 5.54276 32.4076 5.54222L32.3788 4.74273C32.3618 4.74335 32.3518 4.74368 32.3426 4.74373L32.3471 5.54372ZM24.8284 9.06849C25.4455 8.24115 26.0873 7.38596 27.1807 6.71932C28.2703 6.05498 29.8455 5.55793 32.3471 5.54372L32.3426 4.74373C29.7348 4.75854 28.0077 5.27814 26.7643 6.03627C25.5246 6.7921 24.8025 7.7652 24.1871 8.59015L24.8284 9.06849ZM24.5356 9.45754C24.6334 9.32981 24.731 9.19903 24.8284 9.06849L24.1871 8.59015C24.0892 8.72144 23.9947 8.84805 23.9005 8.971L24.5356 9.45754ZM23.4466 11.2265L24.5585 9.4243L23.8776 9.00424L22.7657 10.8065L23.4466 11.2265ZM22.4836 15.503C22.4836 13.9585 22.8369 12.4957 23.4664 11.1903L22.7459 10.8427C22.0653 12.254 21.6836 13.8353 21.6836 15.503H22.4836ZM22.4836 23.2452V15.503H21.6836V23.2452H22.4836ZM19.0446 18.5388C19.0446 20.6079 20.1179 22.4966 21.8728 23.5851L22.2945 22.9053C20.77 21.9596 19.8446 20.3255 19.8446 18.5388H19.0446ZM19.0446 15.5292V18.5388H19.8446V15.5292H19.0446ZM12.8036 9.41855C16.2521 9.41855 19.0446 12.1676 19.0446 15.5292H19.8446C19.8446 11.7109 16.6789 8.61855 12.8036 8.61855V9.41855ZM12.2212 9.98165C12.2212 9.67809 12.4744 9.41855 12.8036 9.41855V8.61855C12.0476 8.61855 11.4212 9.22138 11.4212 9.98165H12.2212ZM12.2212 13.3409V9.98165H11.4212V13.3409H12.2212ZM11.3555 13.7409H11.8212V12.9409H11.3555V13.7409ZM6.77215 16.3505C7.69952 14.7501 9.43644 13.7409 11.3555 13.7409V12.9409C9.15457 12.9409 7.15214 14.0991 6.07996 15.9494L6.77215 16.3505ZM4.17413 16.55H6.42606V15.75H4.17413V16.55ZM2.05015 17.5176C2.57752 16.9038 3.35091 16.55 4.17413 16.55V15.75C3.12079 15.75 2.1247 16.2032 1.44334 16.9963L2.05015 17.5176ZM1.44045 19.7209C1.30187 18.9335 1.52296 18.1311 2.05011 17.5177L1.44339 16.9963C0.761415 17.7898 0.472057 18.834 0.652557 19.8595L1.44045 19.7209ZM1.80404 21.7886L1.44046 19.7209L0.652546 19.8595L1.01613 21.9271L1.80404 21.7886ZM6.08684 25.32C3.9591 25.32 2.16298 23.8297 1.80404 21.7886L1.01613 21.9271C1.44427 24.3618 3.58203 26.12 6.08684 26.12V25.32ZM9.53904 25.32H6.08684V26.12H9.53904V25.32ZM9.93904 29.4659V25.72H9.13904V29.4659H9.93904ZM11.9268 39.6204C10.6075 36.3795 9.93904 32.9653 9.93904 29.4659H9.13904C9.13904 33.0688 9.8276 36.5854 11.1858 39.9221L11.9268 39.6204ZM9.67325 48.3834L11.9428 39.8743L11.1698 39.6682L8.90027 48.1772L9.67325 48.3834ZM8.8854 49.2655L9.57327 48.5594L9.00026 48.0012L8.31239 48.7072L8.8854 49.2655ZM8.5028 51.3326C8.19078 50.6177 8.33489 49.8307 8.88544 49.2654L8.31235 48.7072C7.53688 49.5034 7.32634 50.637 7.76959 51.6526L8.5028 51.3326ZM10.3045 52.4953C9.50009 52.4953 8.81534 52.0489 8.50281 51.3326L7.76957 51.6526C8.2121 52.6668 9.18896 53.2953 10.3045 53.2953V52.4953ZM14.174 52.4953H10.3045V53.2953H14.174V52.4953ZM12.8443 54.6452C13.3482 54.1395 13.8769 53.6584 14.4283 53.2041L13.9196 52.5866C13.348 53.0576 12.7999 53.5563 12.2775 54.0806L12.8443 54.6452ZM11.6326 56.0863C11.9302 55.7195 12.2282 55.3521 12.4568 55.0773C12.5715 54.9394 12.6659 54.8282 12.7328 54.753C12.7671 54.7145 12.7893 54.691 12.8012 54.6792C12.8084 54.6722 12.8044 54.6768 12.7929 54.6857C12.7882 54.6894 12.7702 54.7034 12.7431 54.7177C12.7389 54.72 12.6356 54.781 12.4947 54.7574L12.6271 53.9684C12.4837 53.9444 12.3769 54.0064 12.3679 54.0112C12.3362 54.028 12.3125 54.0459 12.301 54.0548C12.276 54.0743 12.2544 54.095 12.24 54.1091C12.2089 54.1398 12.1727 54.1791 12.1353 54.221C12.059 54.3067 11.9575 54.4265 11.8417 54.5657C11.6093 54.8452 11.3078 55.2168 11.0113 55.5822L11.6326 56.0863ZM11.6371 56.0806L11.6372 56.0805L11.0067 55.588L11.0067 55.5881L11.6371 56.0806ZM10.1516 57.6275C10.2686 57.6275 10.3511 57.5753 10.3601 57.57C10.3865 57.5544 10.4066 57.5387 10.4172 57.5301C10.4395 57.512 10.4591 57.493 10.4727 57.4794C10.5017 57.4504 10.5355 57.4134 10.5706 57.3739C10.642 57.2932 10.7369 57.1809 10.8456 57.0501C11.0637 56.7875 11.3479 56.4371 11.6325 56.0864L11.0112 55.5823C10.7256 55.9344 10.4447 56.2807 10.2302 56.539C10.1226 56.6685 10.0343 56.7728 9.97167 56.8435C9.93965 56.8796 9.91867 56.9021 9.90717 56.9136C9.90049 56.9203 9.90348 56.9167 9.91292 56.9091C9.91701 56.9057 9.93161 56.894 9.95359 56.881C9.95806 56.8784 10.037 56.8275 10.1516 56.8275V57.6275ZM6.52109 69.9237C6.52109 65.2864 7.98657 60.9858 10.4783 57.4583L9.82485 56.9967C7.24124 60.6543 5.72109 65.1152 5.72109 69.9237H6.52109ZM6.52109 70.4147V69.9237H5.72109V70.4147H6.52109ZM9.40304 73.2966C7.8142 73.2966 6.52109 72.0035 6.52109 70.4147H5.72109C5.72109 72.4453 7.37237 74.0966 9.40304 74.0966V73.2966ZM68.4864 73.2966H9.40304V74.0966H68.4864V73.2966ZM71.3683 70.4147C71.3683 72.0035 70.0752 73.2966 68.4864 73.2966V74.0966C70.517 74.0966 72.1683 72.4453 72.1683 70.4147H71.3683ZM71.3683 69.9237V70.4147H72.1683V69.9237H71.3683ZM69.2352 60.5402C70.6507 63.48 71.3683 66.6363 71.3683 69.9237H72.1683C72.1683 66.517 71.424 63.242 69.956 60.1932L69.2352 60.5402ZM22.1232 24.8987C22.0183 24.8882 21.8889 24.8636 21.7313 24.8189L21.5129 25.5885C21.7052 25.643 21.882 25.6786 22.0441 25.6948L22.1232 24.8987ZM22.4836 26.0049V25.2967H21.6836V26.0049H22.4836ZM17.7082 32.041C17.5965 30.5234 17.9794 29.2478 18.7372 28.2903C19.4955 27.3322 20.6546 26.6606 22.1525 26.3989L22.0148 25.6109C20.3543 25.901 19.0082 26.6588 18.1099 27.7938C17.211 28.9295 16.786 30.4108 16.9103 32.0997L17.7082 32.041ZM18.4505 34.9557C18.0396 34.0032 17.7784 32.9936 17.7082 32.041L16.9103 32.0998C16.9879 33.1517 17.2741 34.2484 17.716 35.2726L18.4505 34.9557ZM18.1992 35.7914C18.1992 35.6396 18.2611 35.5011 18.3648 35.3983L17.8017 34.83C17.5543 35.0752 17.3992 35.4152 17.3992 35.7914H18.1992ZM18.1992 40.2452V35.7914H17.3992V40.2452H18.1992ZM13.9495 51.116L18.1714 40.3917L17.427 40.0987L13.2051 50.8229L13.9495 51.116ZM10.3046 51.3694H13.5773V50.5694H10.3046V51.3694ZM9.57607 50.8954C9.6468 51.0572 9.85414 51.3694 10.3046 51.3694V50.5694C10.2981 50.5694 10.2945 50.5689 10.2934 50.5687C10.2923 50.5685 10.293 50.5686 10.2949 50.5693C10.2968 50.57 10.2993 50.5711 10.3019 50.5726C10.3044 50.5741 10.3066 50.5757 10.3084 50.5771C10.3118 50.58 10.3129 50.5817 10.3122 50.5808C10.3115 50.5797 10.3103 50.5776 10.3091 50.575L9.57607 50.8954ZM9.73329 50.0378C9.41548 50.3641 9.50568 50.7345 9.57614 50.8955L10.3091 50.5749C10.308 50.5725 10.3075 50.5706 10.3073 50.5699C10.3072 50.5693 10.3079 50.5723 10.3076 50.5782C10.3074 50.5812 10.3069 50.5847 10.306 50.5885C10.3051 50.5924 10.3039 50.5958 10.3027 50.5986C10.3015 50.6014 10.3005 50.6028 10.3006 50.6027C10.3007 50.6025 10.3023 50.6002 10.3064 50.596L9.73329 50.0378ZM10.5967 49.1514L9.73328 50.0378L10.3064 50.596L11.1698 49.7096L10.5967 49.1514ZM10.7368 48.9058C10.7123 48.9973 10.6645 49.0819 10.5968 49.1514L11.1697 49.7097C11.3325 49.5426 11.4497 49.3371 11.5097 49.1121L10.7368 48.9058ZM13.1531 39.8462L10.7368 48.9059L11.5097 49.112L13.9261 40.0524L13.1531 39.8462ZM13.1286 39.4936C13.1757 39.6056 13.1842 39.7293 13.1531 39.8465L13.9262 40.0522C14.0029 39.7639 13.9819 39.4587 13.8659 39.1832L13.1286 39.4936ZM11.1037 29.466C11.1037 32.926 11.7852 36.3003 13.1286 39.4935L13.866 39.1833C12.5638 36.0881 11.9037 32.8193 11.9037 29.466H11.1037ZM11.1037 24.757V29.466H11.9037V24.757H11.1037ZM10.5213 24.1939C10.8504 24.1939 11.1037 24.4534 11.1037 24.757H11.9037C11.9037 23.9967 11.2772 23.3939 10.5213 23.3939V24.1939ZM10.5315 24.1937C10.5294 24.1938 10.5258 24.1939 10.5213 24.1939V23.3939C10.5127 23.3939 10.505 23.3941 10.4988 23.3944L10.5315 24.1937ZM10.532 24.1937L10.5314 24.1937L10.4989 23.3943C10.4884 23.3948 10.4789 23.3955 10.4762 23.3957L10.532 24.1937ZM10.5202 24.1945C10.5252 24.1942 10.5299 24.1939 10.5319 24.1937L10.4763 23.3956C10.4735 23.3958 10.4734 23.3958 10.4737 23.3958L10.5202 24.1945ZM10.5022 24.1953C10.5092 24.1951 10.5153 24.1948 10.52 24.1945L10.4738 23.3958C10.4745 23.3958 10.4766 23.3957 10.4796 23.3956L10.5022 24.1953ZM10.4554 24.194L10.4676 24.1947L10.5141 23.3961L10.5019 23.3954L10.4554 24.194ZM10.4604 24.1939C10.4547 24.1939 10.4506 24.1937 10.4491 24.1936C10.4481 24.1936 10.4476 24.1935 10.4513 24.1938L10.5061 23.3957C10.5022 23.3954 10.4826 23.3939 10.4604 23.3939V24.1939ZM6.08684 24.1939H10.4604V23.3939H6.08684V24.1939ZM2.95222 21.6C3.2176 23.1082 4.54093 24.1939 6.08684 24.1939V23.3939C4.91801 23.3939 3.93627 22.5761 3.74012 21.4614L2.95222 21.6ZM2.58864 19.5324L2.95222 21.6L3.74013 21.4614L3.37655 19.3939L2.58864 19.5324ZM2.94601 18.2373C2.63839 18.5954 2.50699 19.068 2.58863 19.5324L3.37655 19.3939C3.33677 19.1676 3.39989 18.9367 3.55282 18.7587L2.94601 18.2373ZM4.17413 17.6763C3.70167 17.6763 3.25327 17.8797 2.94601 18.2373L3.55282 18.7587C3.70609 18.5803 3.9318 18.4763 4.17413 18.4763V17.6763ZM7.03523 17.6763H4.17413V18.4763H7.03523V17.6763ZM7.57285 17.3296C7.48377 17.5363 7.27389 17.6763 7.03523 17.6763V18.4763C7.58641 18.4763 8.08935 18.1526 8.30757 17.6461L7.57285 17.3296ZM11.3555 14.8671C9.70563 14.8671 8.2185 15.8307 7.57284 17.3296L8.30758 17.6461C8.82408 16.447 10.0181 15.6671 11.3555 15.6671V14.8671ZM12.8036 14.8671H11.3555V15.6671H12.8036V14.8671ZM13.386 14.304C13.386 14.6076 13.1327 14.8671 12.8036 14.8671V15.6671C13.5595 15.6671 14.186 15.0643 14.186 14.304H13.386ZM13.386 11.0464V14.304H14.186V11.0464H13.386ZM17.8799 15.5291C17.8799 13.1329 16.1523 11.1357 13.8684 10.655L13.7036 11.4379C15.6363 11.8446 17.0799 13.5302 17.0799 15.5291H17.8799ZM17.8799 18.5388V15.5291H17.0799V18.5388H17.8799ZM21.8027 24.8467C19.3794 23.621 17.8799 21.2035 17.8799 18.5388H17.0799C17.0799 21.5112 18.7546 24.2014 21.4416 25.5606L21.8027 24.8467ZM19.364 37.6813V40.4246H20.164V37.6813H19.364ZM20.0487 37.6702C20.1244 37.666 20.1825 37.6848 20.2126 37.6968C20.2446 37.7097 20.2673 37.724 20.2791 37.732C20.2918 37.7406 20.3007 37.748 20.3052 37.7519C20.31 37.756 20.3128 37.7588 20.3135 37.7595C20.3146 37.7606 20.3121 37.7582 20.3054 37.7503C20.2991 37.7429 20.2907 37.7326 20.2802 37.7191C20.2365 37.6629 20.1744 37.5749 20.0961 37.4584L19.4319 37.9042C19.5125 38.0244 19.5873 38.1314 19.649 38.2106C19.6788 38.2489 19.7133 38.2908 19.7491 38.3264C19.7662 38.3434 19.7941 38.3697 19.8303 38.3942C19.849 38.4069 19.9492 38.4769 20.093 38.4689L20.0487 37.6702ZM23.6144 39.2697C22.4908 39.2697 21.3635 38.7696 20.3498 37.7829L19.7918 38.3562C20.921 39.4554 22.2395 40.0697 23.6144 40.0697V39.2697ZM23.8959 39.2593C23.8015 39.2662 23.7077 39.2697 23.6144 39.2697V40.0697C23.7276 40.0697 23.8407 40.0654 23.9537 40.0573L23.8959 39.2593ZM25.5972 38.776C25.101 39.0472 24.5308 39.2126 23.8954 39.2594L23.9542 40.0572C24.6937 40.0027 25.3762 39.8085 25.981 39.4779L25.5972 38.776ZM27.2589 40.1545C26.8502 39.7495 26.4636 39.3217 26.0992 38.8743L25.4789 39.3795C25.8606 39.8481 26.2662 40.297 26.6957 40.7227L27.2589 40.1545ZM27.3773 47.8992V40.4386H26.5773V47.8992H27.3773ZM17.1131 51.3127C20.0361 49.5681 23.402 48.4927 26.9988 48.2986L26.9557 47.4998C23.2257 47.701 19.7343 48.8166 16.7031 50.6258L17.1131 51.3127ZM15.6833 51.3693H16.9081V50.5693H15.6833V51.3693ZM19.3259 40.6249L15.3111 50.8227L16.0555 51.1158L20.0703 40.9179L19.3259 40.6249ZM19.364 40.4246C19.364 40.493 19.3512 40.5608 19.326 40.6247L20.0702 40.9181C20.1323 40.7607 20.164 40.5934 20.164 40.4246H19.364ZM21.8833 35.1709C21.1664 34.2302 20.6689 32.9415 20.5871 31.8291L19.7892 31.8878C19.8831 33.1629 20.4411 34.5982 21.247 35.6558L21.8833 35.1709ZM23.6845 36.381C23.4698 36.3963 23.1902 36.3215 22.8663 36.1156C22.5456 35.9118 22.2059 35.5941 21.8833 35.1709L21.2471 35.6559C21.6136 36.1367 22.0201 36.5257 22.4371 36.7908C22.851 37.0539 23.3007 37.2103 23.7413 37.179L23.6845 36.381ZM24.0291 36.3181C23.9289 36.3491 23.816 36.3712 23.6832 36.3811L23.7425 37.1789C23.9315 37.1649 24.1041 37.1323 24.2655 37.0824L24.0291 36.3181ZM21.69 28.9592C21.7305 31.8322 22.4891 34.535 23.7975 36.8942L24.4971 36.5062C23.2511 34.2595 22.5285 31.6858 22.49 28.9479L21.69 28.9592ZM20.5871 31.829C20.5346 31.1162 20.6593 30.5823 20.9151 30.192C21.1684 29.8055 21.5811 29.5128 22.1986 29.3385L21.9814 28.5686C21.223 28.7826 20.628 29.1705 20.2459 29.7535C19.8663 30.3328 19.7281 31.0572 19.7892 31.8878L20.5871 31.829ZM48.0261 47.4661H29.8635V48.2661H48.0261V47.4661ZM47.6261 42.8599V47.8661H48.4261V42.8599H47.6261ZM39.507 45.6325C42.697 45.6325 45.6838 44.7437 48.2331 43.2022L47.8192 42.5176C45.3907 43.986 42.5465 44.8325 39.507 44.8325V45.6325ZM38.5984 45.6325H39.507V44.8325H38.5984V45.6325ZM29.6512 43.0629C32.2483 44.6885 35.3148 45.6325 38.5984 45.6325V44.8325C35.4703 44.8325 32.5501 43.9337 30.0757 42.3848L29.6512 43.0629ZM30.2635 47.8661V42.7239H29.4635V47.8661H30.2635ZM57.3025 31.8291C57.2207 32.9413 56.7232 34.2302 56.0063 35.1707L56.6426 35.6557C57.4486 34.5982 58.0065 33.1627 58.1004 31.8878L57.3025 31.8291ZM55.8823 29.401C56.4235 29.5895 56.7888 29.8804 57.0143 30.2584C57.2426 30.6412 57.3522 31.1549 57.3025 31.8291L58.1004 31.8878C58.1583 31.1019 58.0372 30.4116 57.7014 29.8486C57.3628 29.2809 56.8305 28.8842 56.1454 28.6455L55.8823 29.401ZM54.2807 36.9418C55.5944 34.5909 56.3615 31.8966 56.4138 29.0306L55.6139 29.016C55.5641 31.747 54.8334 34.3127 53.5823 36.5515L54.2807 36.9418ZM54.2058 36.3807C54.135 36.3755 54.0709 36.3659 54.0057 36.3536L53.8573 37.1397C53.9431 37.1559 54.0385 37.1706 54.1477 37.1786L54.2058 36.3807ZM56.0063 35.1707C55.6839 35.5938 55.3438 35.9119 55.0228 36.116C54.6985 36.3222 54.4194 36.3965 54.2064 36.3807L54.1471 37.1785C54.5879 37.2113 55.0382 37.0543 55.4521 36.7911C55.8693 36.5258 56.2762 36.1364 56.6426 35.6557L56.0063 35.1707ZM43.1321 8.42722C46.1541 8.42722 48.9737 6.82163 50.5376 4.27444L49.8559 3.85586C48.4357 6.16897 45.8726 7.62722 43.1321 7.62722V8.42722ZM32.446 8.42722H43.1321V7.62722H32.446V8.42722ZM25.3704 15.5032C25.3704 11.6021 28.545 8.42741 32.4461 8.42722L32.446 7.62722C28.1031 7.62743 24.5704 11.1603 24.5704 15.5032H25.3704ZM25.3704 28.7183V15.5032H24.5704V28.7183H25.3704ZM38.5986 41.9464C31.3048 41.9464 25.3704 36.0119 25.3704 28.7183H24.5704C24.5704 36.4537 30.8629 42.7464 38.5986 42.7464V41.9464ZM39.5072 41.9464H38.5986V42.7464H39.5072V41.9464ZM52.7354 28.7183C52.7354 36.0119 46.801 41.9464 39.5072 41.9464V42.7464C47.2429 42.7464 53.5354 36.4537 53.5354 28.7183H52.7354ZM52.7354 18.6938V28.7183H53.5354V18.6938H52.7354ZM53.8735 13.8758C53.1297 15.3916 52.7354 17.0568 52.7354 18.6938H53.5354C53.5354 17.1834 53.8998 15.6383 54.5917 14.2282L53.8735 13.8758ZM54.5673 10.8751C54.5673 11.9291 54.334 12.9377 53.8736 13.8758L54.5917 14.2283C55.1065 13.1796 55.3673 12.0503 55.3673 10.8751H54.5673ZM50.0623 4.44186C52.7446 5.39952 54.5675 7.95397 54.5673 10.8751L55.3673 10.8751C55.3675 7.61649 53.3327 4.75999 50.3312 3.68844L50.0623 4.44186ZM10.6408 18.9341C10.5338 18.8292 10.4728 18.6831 10.4728 18.5388H9.67284C9.67284 18.901 9.82233 19.2519 10.0806 19.5052L10.6408 18.9341ZM11.0552 19.1019C10.9012 19.1019 10.7489 19.0395 10.6399 18.9333L10.0814 19.5061C10.3399 19.7581 10.6927 19.9019 11.0552 19.9019V19.1019ZM11.4697 18.934C11.3625 19.0392 11.2099 19.1019 11.0552 19.1019V19.9019C11.4173 19.9019 11.7716 19.7585 12.0298 19.5053L11.4697 18.934ZM11.6376 18.5388C11.6376 18.6841 11.577 18.8294 11.4704 18.9334L12.0291 19.506C12.2897 19.2517 12.4376 18.9001 12.4376 18.5388H11.6376ZM11.4704 18.1442C11.577 18.2482 11.6376 18.3935 11.6376 18.5388H12.4376C12.4376 18.1775 12.2897 17.8258 12.0291 17.5716L11.4704 18.1442ZM11.0552 17.9757C11.2107 17.9757 11.3624 18.0382 11.4697 18.1435L12.0298 17.5722C11.7717 17.3192 11.4185 17.1757 11.0552 17.1757V17.9757ZM10.6407 18.1435C10.7479 18.0384 10.9006 17.9757 11.0552 17.9757V17.1757C10.6933 17.1757 10.3389 17.3191 10.0806 17.5722L10.6407 18.1435ZM10.4728 18.5388C10.4728 18.3943 10.5337 18.2484 10.6407 18.1435L10.0806 17.5722C9.82217 17.8256 9.67284 18.1767 9.67284 18.5388H10.4728Z" fill="white" mask="url(#path-1-outside-1_10_784)"/>
</svg>
