<svg width="55" height="74" viewBox="0 0 55 74" fill="none" xmlns="http://www.w3.org/2000/svg">
<path fill-rule="evenodd" clip-rule="evenodd" d="M1.75 0C0.783502 0 0 0.783502 0 1.75V29.25C0 30.2165 0.783502 31 1.75 31C2.7165 31 3.5 30.2165 3.5 29.25V3.5H51.457V57.0199H40.2268C39.2603 57.0199 38.4768 57.8034 38.4768 58.7699V69.8455H3.5V50.4227C3.5 49.4562 2.7165 48.6727 1.75 48.6727C0.783502 48.6727 0 49.4562 0 50.4227V71.5955C0 72.562 0.783502 73.3455 1.75 73.3455H40.2268C40.7171 73.3455 41.1603 73.1438 41.478 72.819L54.4155 60.0355C54.7491 59.7169 54.957 59.2676 54.957 58.7699V1.75C54.957 0.783502 54.1735 0 53.207 0H1.75ZM41.9768 67.4058L48.9457 60.5199H41.9768V67.4058ZM9.78516 12.8257C8.81866 12.8257 8.03516 13.6092 8.03516 14.5757C8.03516 15.5422 8.81866 16.3257 9.78516 16.3257H44.3988C45.3653 16.3257 46.1488 15.5422 46.1488 14.5757C46.1488 13.6092 45.3653 12.8257 44.3988 12.8257H9.78516ZM8.03516 23.8472C8.03516 22.8807 8.81866 22.0972 9.78516 22.0972H44.3988C45.3653 22.0972 46.1488 22.8807 46.1488 23.8472C46.1488 24.8137 45.3653 25.5972 44.3988 25.5972H9.78516C8.81866 25.5972 8.03516 24.8137 8.03516 23.8472ZM9.78516 31.3687C8.81866 31.3687 8.03516 32.1522 8.03516 33.1187C8.03516 34.0852 8.81866 34.8687 9.78516 34.8687H44.3988C45.3653 34.8687 46.1488 34.0852 46.1488 33.1187C46.1488 32.1522 45.3653 31.3687 44.3988 31.3687H9.78516ZM19.1669 45.4928C18.4163 46.7927 16.9122 47.3294 15.8072 46.6915C14.7023 46.0535 14.415 44.4825 15.1655 43.1826C15.916 41.8827 17.4202 41.346 18.5251 41.984C19.6301 42.6219 19.9174 44.1929 19.1669 45.4928ZM32.2369 55.3245C33.3419 55.9625 34.846 55.4258 35.5965 54.1259C36.3471 52.8259 36.0597 51.255 34.9548 50.617C33.8498 49.9791 32.3457 50.5157 31.5952 51.8157C30.8446 53.1156 31.132 54.6866 32.2369 55.3245ZM27.1998 43.7585C26.238 45.4244 24.3104 46.1121 22.8944 45.2946C21.4784 44.477 21.1101 42.4638 22.072 40.7979C23.0338 39.132 24.9614 38.4442 26.3774 39.2618C27.7934 40.0793 28.1616 42.0926 27.1998 43.7585ZM29.7336 49.0145C31.1807 49.8499 33.1506 49.1471 34.1335 47.4447C35.1164 45.7423 34.7401 43.6849 33.293 42.8494C31.8459 42.014 29.8761 42.7168 28.8932 44.4192C27.9103 46.1216 28.2865 48.179 29.7336 49.0145ZM17.5403 59.1111C17.7862 59.1111 18.0275 59.0917 18.2629 59.0543C18.8923 61.1439 20.8315 62.6659 23.1263 62.6659C25.931 62.6659 28.2047 60.3922 28.2047 57.5875C28.2047 56.5101 27.8692 55.5111 27.297 54.6892C27.5542 54.0992 27.6969 53.4477 27.6969 52.763C27.6969 50.0985 25.5369 47.9385 22.8724 47.9385C21.1706 47.9385 19.6747 48.8195 18.8158 50.1503C18.411 50.0329 17.983 49.97 17.5403 49.97C15.016 49.97 12.9697 52.0163 12.9697 54.5406C12.9697 57.0648 15.016 59.1111 17.5403 59.1111ZM2.80462 40.4852C2.49899 40.7832 2.0791 40.9531 1.64908 40.9531C1.21775 40.9531 0.796072 40.7832 0.492067 40.4852C0.188063 40.1872 0.0146484 39.7738 0.0146484 39.3523C0.0146484 38.9293 0.188063 38.5159 0.492067 38.2179C0.795908 37.9198 1.21759 37.75 1.64908 37.75C2.0791 37.75 2.50062 37.9198 2.80462 38.2179C3.10879 38.5175 3.28351 38.9309 3.28351 39.3523C3.28351 39.7738 3.10863 40.1856 2.80462 40.4852Z" fill="white"/>
</svg>
