<svg width="34" height="36" viewBox="0 0 34 36" fill="none" xmlns="http://www.w3.org/2000/svg">
<path fill-rule="evenodd" clip-rule="evenodd" d="M14.6419 9.47194C16.7311 10.6781 19.575 9.66345 20.9941 7.20562C22.4131 4.74779 21.8698 1.77753 19.7807 0.571355C17.6915 -0.634819 14.8476 0.379848 13.4286 2.83768C12.0095 5.29551 12.5528 8.26577 14.6419 9.47194ZM9.14346 9.76396C8.03616 11.6818 5.81698 12.4736 4.18677 11.5324C2.55656 10.5912 2.13266 8.27346 3.23995 6.35556C4.34725 4.43767 6.56643 3.64591 8.19664 4.58711C9.82685 5.52831 10.2508 7.84606 9.14346 9.76396ZM33.383 22.5013C32.2757 24.4192 30.0565 25.2109 28.4263 24.2697C26.7961 23.3285 26.3722 21.0108 27.4795 19.0929C28.5868 17.175 30.806 16.3832 32.4362 17.3244C34.0664 18.2656 34.4903 20.5834 33.383 22.5013ZM31.2237 12.6438C29.7735 15.1555 26.8673 16.1924 24.7323 14.9598C22.5973 13.7271 22.0422 10.6918 23.4923 8.18004C24.9425 5.66832 27.8488 4.63141 29.9837 5.86403C32.1187 7.09665 32.6738 10.132 31.2237 12.6438ZM7.80976 29.7722C7.4624 29.8274 7.10619 29.8561 6.7433 29.8561C3.01908 29.8561 0 26.837 0 23.1128C0 19.3886 3.01908 16.3695 6.7433 16.3695C7.3966 16.3695 8.0282 16.4624 8.62562 16.6357C9.89281 14.6723 12.0998 13.3725 14.6105 13.3725C18.5416 13.3725 21.7284 16.5593 21.7284 20.4904C21.7284 21.5007 21.5179 22.4618 21.1384 23.3323C21.9827 24.5449 22.4776 26.0188 22.4776 27.6083C22.4776 31.7464 19.1231 35.1009 14.9851 35.1009C11.5994 35.1009 8.73825 32.8553 7.80976 29.7722Z" fill="white"/>
</svg>
