<svg width="80" height="73" viewBox="0 0 80 73" fill="none" xmlns="http://www.w3.org/2000/svg">
<path fill-rule="evenodd" clip-rule="evenodd" d="M45.5075 37.8993C45.8017 38.1538 46.1661 38.2808 46.531 38.2808C46.896 38.2808 47.261 38.1538 47.5546 37.8993C49.0433 36.6092 50.4656 35.3934 51.8168 34.2385L51.8172 34.2381C62.0374 25.5025 68.1889 20.2445 68.1889 12.5702C68.1889 5.69643 63.3225 0 56.4859 0C51.9962 0 48.558 2.5879 46.3437 6.47158C44.1342 2.59645 40.6997 0 36.2032 0C30.9695 0 26.5938 3.39174 25.0557 8.64017C24.8128 9.46842 25.2877 10.3363 26.1159 10.5793C26.9442 10.8222 27.8121 10.3473 28.0544 9.51908C29.1927 5.63479 32.391 3.12501 36.2032 3.12501C40.6607 3.12501 43.7875 7.08316 44.8379 10.7685C45.0253 11.4454 45.6418 11.9141 46.3437 11.9141C47.0462 11.9141 47.662 11.4454 47.8494 10.7685C47.8708 10.6922 50.0412 3.12501 56.4859 3.12501C61.3761 3.12501 65.0638 7.18509 65.0638 12.5702C65.0638 18.8078 59.5922 23.4832 49.9853 31.6921C48.8869 32.6307 47.7344 33.6155 46.5298 34.6541C44.894 33.2492 43.3351 31.9396 41.8648 30.7044C36.9065 26.5387 32.9567 23.2204 30.4659 19.958C29.9422 19.2719 28.962 19.1401 28.276 19.6638C27.5899 20.1875 27.4587 21.1677 27.9818 21.8543C30.6825 25.3915 34.7621 28.8188 39.8492 33.0924L39.8492 33.0925C41.6186 34.5789 43.5099 36.1678 45.5075 37.8993ZM57.0852 51.4349L71.8155 46.3708C74.6793 45.3436 77.8598 46.4617 79.2179 48.9752C81.0642 52.3907 79.4693 56.2658 76.2393 57.5763L47.076 70.4175C44.4692 71.6016 41.697 72.2022 38.8356 72.2022C35.2248 72.2022 31.6804 71.2201 28.5847 69.3622L20.4133 64.4592C19.1273 63.6877 17.0808 63.1647 15.312 62.9449C14.6345 64.7015 12.9279 65.9522 10.9375 65.9522H1.56251C0.699466 65.9522 0 65.2527 0 64.3897V36.2651C0 35.4021 0.699466 34.7026 1.56251 34.7026H10.9375C12.9743 34.7026 14.7114 36.0088 15.3559 37.827H26.4326C28.3094 37.827 30.1643 38.3135 31.7964 39.2333L40.0514 43.8763C40.2852 44.0081 40.5501 44.0771 40.8187 44.0771H50.9371C54.3838 44.0771 57.1871 46.881 57.1871 50.3271C57.1871 50.7025 57.1505 51.0723 57.0852 51.4349ZM10.9375 62.8271C11.7963 62.8271 12.4964 62.1301 12.5001 61.272V39.3902C12.5001 38.5283 11.7988 37.8277 10.9375 37.8277H3.12501V62.8271H10.9375ZM75.0028 54.7064C75.0192 54.6997 75.0357 54.6923 75.0522 54.6862C76.63 54.0545 77.3996 52.1826 76.4688 50.4608C75.8481 49.3121 74.2648 48.8091 72.8647 49.3145L53.8662 55.8453C52.9708 56.3226 51.9619 56.5771 50.9371 56.5771H35.0532C34.1902 56.5771 33.4907 55.8777 33.4907 55.0152C33.4907 54.1522 34.1902 53.4527 35.0532 53.4527H50.9371C52.6595 53.4527 54.0621 52.0446 54.0621 50.3277C54.0621 48.6041 52.6601 47.2027 50.9371 47.2027H40.8187C40.0142 47.2027 39.2183 46.9939 38.5188 46.5997L30.2638 41.9567C29.0974 41.2993 27.7729 40.9527 26.4326 40.9527H15.6251V59.8346C17.7668 60.0909 20.2717 60.7306 22.021 61.7798L30.193 66.6828C32.8029 68.2495 35.7912 69.0772 38.8356 69.0772C41.2502 69.0772 43.5903 68.57 45.7906 67.569L75.0028 54.7064ZM6.25 42.5154C6.25 41.653 6.95008 40.9529 7.81251 40.9529C8.67494 40.9529 9.37501 41.653 9.37501 42.5154C9.37501 43.3778 8.67494 44.0779 7.81251 44.0779C6.95008 44.0779 6.25 43.3778 6.25 42.5154ZM24.8438 15.3276C24.8438 14.4652 25.5438 13.7651 26.4063 13.7651C27.2687 13.7651 27.9688 14.4652 27.9688 15.3276C27.9688 16.1901 27.2687 16.8901 26.4063 16.8901C25.5438 16.8901 24.8438 16.1901 24.8438 15.3276Z" fill="white"/>
</svg>
