<svg xmlns="http://www.w3.org/2000/svg" width="128" height="128" viewBox="0 0 128 128">
  <title>DOG</title>
  <g>
    <path d="M98.15,77.31v26.78H29.85V77.31A20.078,20.078,0,0,1,49.93,57.24H78.07A20.078,20.078,0,0,1,98.15,77.31Z" fill="#9d6043"/>
    <path d="M102.285,49.85c-3.311-2.257-4.952-8.992-6.952-13.277-2.333-5-8.188-6.412-8.188-6.412,0-3.452-10.362-6.25-23.145-6.25s-23.145,2.8-23.145,6.25c0,0-5.855,1.412-8.188,6.412-2,4.285-3.641,11.02-6.952,13.277a3.923,3.923,0,0,0-1.8,3.216v.4a3.916,3.916,0,0,0,4.31,3.9,12.1,12.1,0,0,0,7.112-2.953c4.5-4.167,5.522-10.6,5.522-10.6v8.859a23.145,23.145,0,1,0,46.29,0V43.8s1.022,6.437,5.522,10.6a12.1,12.1,0,0,0,7.112,2.953,3.916,3.916,0,0,0,4.31-3.9v-.4A3.923,3.923,0,0,0,102.285,49.85Z" fill="#bb8473"/>
    <circle cx="64" cy="64.098" r="11.708" fill="#fbde50"/>
    <ellipse cx="64" cy="52.234" rx="5.813" ry="3.875" fill="#4c506d"/>
    <g>
      <circle cx="54.345" cy="42.859" r="2.053" fill="#4c506d"/>
      <circle cx="73.655" cy="42.859" r="2.053" fill="#4c506d"/>
    </g>
    <path d="M59.531,66.984V78.265a4.469,4.469,0,1,0,8.938,0V66.984Z" fill="#e60c3b"/>
    <path d="M64,83.208h0a19.25,19.25,0,0,1,19.25,19.25v1.63a0,0,0,0,1,0,0H44.75a0,0,0,0,1,0,0v-1.63A19.25,19.25,0,0,1,64,83.208Z" fill="#bb8473"/>
    <g>
      <path d="M46.5,82.73v21.36H43V82.73a1.75,1.75,0,0,1,3.5,0Z" fill="#bb8473"/>
      <path d="M85,82.73v21.36H81.5V82.73a1.75,1.75,0,0,1,3.5,0Z" fill="#bb8473"/>
    </g>
  </g>
</svg>
