<svg width="57" height="73" viewBox="0 0 57 73" fill="none" xmlns="http://www.w3.org/2000/svg">
<path fill-rule="evenodd" clip-rule="evenodd" d="M5.0455 5.10248C6.34696 3.74895 8.0993 3 9.91346 3H53.8462V18.5C53.8462 19.3284 54.5177 20 55.3462 20C56.1746 20 56.8462 19.3284 56.8462 18.5V1.5C56.8462 0.671573 56.1746 0 55.3462 0H9.91346C7.26484 0 4.73719 1.09479 2.883 3.02315C1.03073 4.94951 0 7.5501 0 10.25V62.1891V62.75C0 65.4499 1.03073 68.0505 2.883 69.9769C4.73719 71.9052 7.26484 73 9.91346 73H55.3462C56.1746 73 56.8462 72.3284 56.8462 71.5V53.7756V45C56.8462 44.1716 56.1746 43.5 55.3462 43.5C54.5177 43.5 53.8462 44.1716 53.8462 45V52.2756H9.91346C7.32942 52.2756 4.8494 53.2845 3 55.0841V10.25C3 8.30861 3.7421 6.45801 5.0455 5.10248ZM3 62.1891V62.75C3 64.6914 3.7421 66.542 5.0455 67.8975C6.34696 69.2511 8.0993 70 9.91346 70H53.8462V55.2756H9.91346C8.0799 55.2756 6.32143 56.004 5.02491 57.3005C3.72838 58.5971 3 60.3555 3 62.1891ZM56.8462 28.5C56.8462 27.6716 56.1746 27 55.3462 27C54.5177 27 53.8462 27.6716 53.8462 28.5V35.5C53.8462 36.3284 54.5177 37 55.3462 37C56.1746 37 56.8462 36.3284 56.8462 35.5V28.5ZM26.0632 18.906C28.334 20.2171 31.4252 19.1142 32.9675 16.4427C34.5099 13.7712 33.9194 10.5428 31.6487 9.23173C29.3779 7.92071 26.2868 9.02358 24.7444 11.6951C23.202 14.3665 23.7925 17.595 26.0632 18.906ZM20.0861 19.2236C18.8825 21.3082 16.4705 22.1688 14.6985 21.1458C12.9266 20.1227 12.4659 17.6035 13.6694 15.5189C14.873 13.4343 17.2851 12.5737 19.057 13.5967C20.8289 14.6197 21.2896 17.139 20.0861 19.2236ZM46.4328 33.0681C45.2292 35.1527 42.8171 36.0133 41.0452 34.9902C39.2733 33.9672 38.8125 31.448 40.0161 29.3634C41.2196 27.2788 43.6317 26.4182 45.4037 27.4412C47.1756 28.4642 47.6363 30.9835 46.4328 33.0681ZM44.0866 22.3538C42.5104 25.0838 39.3515 26.2109 37.0309 24.8711C34.7104 23.5313 34.1069 20.2321 35.6831 17.502C37.2593 14.772 40.4183 13.6449 42.7388 14.9847C45.0594 16.3245 45.6628 19.6237 44.0866 22.3538ZM18.6368 40.9712C18.2594 41.0311 17.8723 41.0623 17.4779 41.0623C13.43 41.0623 10.1484 37.7808 10.1484 33.7328C10.1484 29.6848 13.43 26.4033 17.4779 26.4033C18.1879 26.4033 18.8743 26.5043 19.5236 26.6926C20.9009 24.5585 23.2998 23.1458 26.0287 23.1458C30.3015 23.1458 33.7653 26.6096 33.7653 30.8824C33.7653 31.9805 33.5366 33.0251 33.1241 33.9712C34.0417 35.2892 34.5797 36.8913 34.5797 38.619C34.5797 43.1167 30.9336 46.7628 26.4359 46.7628C22.7559 46.7628 19.6461 44.3221 18.6368 40.9712Z" fill="white"/>
</svg>
