<svg width="79" height="73" viewBox="0 0 79 73" fill="none" xmlns="http://www.w3.org/2000/svg">
<path fill-rule="evenodd" clip-rule="evenodd" d="M0 1.5C0 0.671573 0.671573 0 1.5 0H66.8083C67.6367 0 68.3083 0.671573 68.3083 1.5V19.5C68.3083 20.3284 67.6367 21 66.8083 21C65.9799 21 65.3083 20.3284 65.3083 19.5V11.2571H3V57.6139H51.1659C52.0785 50.9255 57.8614 45.7909 64.744 45.7909L64.8506 45.7908H64.8509H64.8512H64.8516H64.8519H64.8523H64.8526H64.853H64.8533H64.8537H64.854H64.8543C64.9939 45.7906 65.1467 45.7904 65.3083 45.7927V33.4893C65.3083 32.6609 65.9799 31.9893 66.8083 31.9893C67.6367 31.9893 68.3083 32.6609 68.3083 33.4893V46.0749C74.2085 47.6092 78.6302 52.9782 78.6302 59.3015C78.6302 66.886 72.5163 72.9999 64.9318 72.9999C57.7901 72.9999 51.9523 67.579 51.295 60.6139H1.5C0.671573 60.6139 0 59.9424 0 59.1139V1.5ZM54.1027 58.3128C54.6834 52.9604 59.2667 48.7909 64.744 48.7909C65.5797 48.7909 66.0523 48.8077 66.334 48.9016C66.6395 49.0034 66.9653 49.003 67.2645 48.9075C72.0381 50.0067 75.6302 54.2972 75.6302 59.3015C75.6302 65.2291 70.8594 69.9999 64.9318 69.9999C59.0042 69.9999 54.2334 65.2291 54.2334 59.3015V59.3004V59.2993V59.2982V59.2971V59.296V59.2949V59.2938V59.2927V59.2916V59.2905V59.2894V59.2883V59.2872V59.2861V59.285V59.2839V59.2828V59.2817V59.2806V59.2795V59.2784V59.2773V59.2762V59.2751V59.274V59.2729V59.2718V59.2707V59.2696V59.2685V59.2674V59.2664V59.2653V59.2642V59.2631V59.262V59.2609V59.2598V59.2587V59.2576V59.2565V59.2554V59.2543V59.2532V59.2521V59.251V59.25V59.2489V59.2478V59.2467V59.2456V59.2445V59.2434V59.2423V59.2412V59.2402V59.2391V59.238V59.2369V59.2358V59.2347V59.2337V59.2326V59.2315V59.2304V59.2293V59.2282V59.2272V59.2261V59.225V59.2239V59.2228V59.2218V59.2207V59.2196V59.2185V59.2175V59.2164V59.2153V59.2142V59.2132V59.2121V59.211V59.21V59.2089V59.2078V59.2067V59.2057V59.2046V59.2035V59.2025V59.2014V59.2004V59.1993V59.1982V59.1972V59.1961V59.195V59.194V59.1929V59.1919V59.1908V59.1898V59.1887V59.1877V59.1866V59.1856V59.1845V59.1834V59.1824V59.1814V59.1803V59.1793V59.1782V59.1772V59.1761V59.1751V59.174V59.173V59.172V59.1709V59.1699V59.1688V59.1678V59.1668V59.1657V59.1647V59.1637V59.1626V59.1616V59.1606V59.1596V59.1585V59.1575V59.1565V59.1555V59.1544V59.1534V59.1524V59.1514V59.1504V59.1494V59.1483V59.1473V59.1463V59.1453V59.1443V59.1433V59.1423V59.1413V59.1403V59.1393V59.1383V59.1373V59.1363V59.1353V59.1343V59.1333V59.1323V59.1313V59.1303V59.1293V59.1283V59.1273V59.1263V59.1254V59.1244V59.1234V59.1224V59.1214V59.1205V59.1195V59.1185V59.1175V59.1166V59.1156V59.1146V59.1137V59.1127V59.1117V59.1108V59.1098V59.1088V59.1079V59.1069V59.106V59.105V59.1041V59.1031V59.1022V59.1012V59.1003V59.0993V59.0984V59.0974V59.0965V59.0956V59.0946V59.0937V59.0928V59.0918V59.0909V59.09V59.089V59.0881V59.0872V59.0863V59.0854V59.0844V59.0835V59.0826V59.0817V59.0808V59.0799V59.079V59.0781V59.0772V59.0763V59.0754V59.0745V59.0736V59.0727V59.0718V59.0709V59.07V59.0691V59.0682V59.0674V59.0665V59.0656V59.0647V59.0638V59.063V59.0621V59.0612V59.0604V59.0595V59.0586V59.0578V59.0569V59.0561V59.0552V59.0544V59.0535V59.0527V59.0518V59.051V59.0501V59.0493V59.0484V59.0476V59.0468V59.0459V59.0451V59.0443V59.0435V59.0426V59.0418V59.041V59.0402V59.0394V59.0385V59.0377V59.0369V59.0361V59.0353V59.0345V59.0337V59.0329V59.0321V59.0313V59.0305V59.0298V59.029V59.0282V59.0274V59.0266V59.0258V59.0251V59.0243V59.0235V59.0228V59.022V59.0212V59.0205V59.0197V59.019V59.0182V59.0175V59.0167V59.016V59.0152V59.0145V59.0137V59.013V59.0123V59.0115V59.0108V59.0101V59.0094V59.0086V59.0079V59.0072V59.0065V59.0058V59.0051V59.0044V59.0037V59.003V59.0023V59.0016V59.0009V59.0002V58.9995V58.9988V58.9981V58.9975V58.9968V58.9961V58.9954V58.9948V58.9941V58.9934V58.9928V58.9921V58.9915V58.9908V58.9902V58.9895V58.9889V58.9882V58.9876V58.987V58.9863V58.9857V58.9851V58.9844V58.9838V58.9832V58.9826V58.982V58.9814V58.9808V58.9801V58.9795V58.9789V58.9784V58.9778V58.9772V58.9766V58.976V58.9754V58.9748V58.9743V58.9737V58.9731V58.9726V58.972V58.9714V58.9709V58.9703V58.9698V58.9692V58.9687V58.9681V58.9676V58.9671V58.9665V58.966V58.9655V58.9649V58.9644V58.9639V58.9634V58.9629V58.9624V58.9619V58.9614V58.9609V58.9604V58.9599V58.9594V58.9589V58.9584V58.9579V58.9575V58.957V58.9565V58.9561V58.9556V58.9551V58.9547V58.9542V58.9538V58.9533V58.9529V58.9524V58.952V58.9516V58.9511V58.9507V58.9503V58.9499V58.9495V58.949V58.9486V58.9482V58.9478V58.9474V58.947V58.9466V58.9462V58.9459V58.9455V58.9451V58.9447V58.9443V58.944V58.9436V58.9433V58.9429V58.9425V58.9422V58.9418V58.9415V58.9412V58.9408V58.9405V58.9402V58.9398V58.9395V58.9392V58.9389V58.9386V58.9383V58.938V58.9377V58.9374V58.9371V58.9368V58.9365V58.9362V58.9359V58.9357V58.9354V58.9351V58.9349V58.9346V58.9343V58.9341V58.9338V58.9336V58.9333V58.9331V58.9329V58.9327V58.9324V58.9322V58.932V58.9318V58.9316V58.9314V58.9312V58.931V58.9308V58.9306V58.9304V58.9302V58.93V58.9298V58.9297V58.9295V58.9293V58.9292V58.929V58.9289V58.9287V58.9286V58.9285V58.9283V58.9282V58.9281V58.9279V58.9278V58.9277V58.9276V58.9275V58.9274V58.9273V58.9272V58.9271V58.927V58.9269V58.9268V58.9268V58.9267V58.9266V58.9266V58.9265V58.9265V58.9264V58.9264V58.9263V58.9263V58.9263L54.1027 58.3128ZM65.3083 3V8.25708H3V3H65.3083ZM25.4053 25.0287C26.5367 25.6819 28.0768 25.1324 28.8453 23.8014C29.6138 22.4704 29.3196 20.8618 28.1882 20.2086C27.0568 19.5554 25.5167 20.1049 24.7482 21.4359C23.9797 22.767 24.2739 24.3755 25.4053 25.0287ZM45.6681 32.641C44.8996 33.972 43.3594 34.5215 42.2281 33.8683C41.0967 33.2151 40.8025 31.6066 41.571 30.2755C42.3394 28.9445 43.8796 28.395 45.011 29.0482C46.1423 29.7014 46.4365 31.31 45.6681 32.641ZM32.6619 23.5986C34.1118 24.4357 36.0856 23.7315 37.0704 22.0257C38.0552 20.32 37.6782 18.2586 36.2283 17.4215C34.7784 16.5844 32.8047 17.2886 31.8199 18.9943C30.835 20.7001 31.212 22.7615 32.6619 23.5986ZM44.1699 25.8C43.1634 27.5432 41.1464 28.2628 39.6647 27.4074C38.1831 26.5519 37.7978 24.4453 38.8042 22.7022C39.8106 20.959 41.8276 20.2394 43.3093 21.0948C44.791 21.9503 45.1763 24.0569 44.1699 25.8ZM27.9198 37.6874C27.6788 37.7257 27.4317 37.7456 27.1799 37.7456C24.5953 37.7456 22.5 35.6503 22.5 33.0657C22.5 30.481 24.5953 28.3857 27.1799 28.3857C27.6332 28.3857 28.0715 28.4502 28.486 28.5704C29.3655 27.2078 30.8972 26.3057 32.6396 26.3057C35.3679 26.3057 37.5795 28.5173 37.5795 31.2456C37.5795 31.9468 37.4334 32.6139 37.17 33.218C37.756 34.0596 38.0995 35.0826 38.0995 36.1858C38.0995 39.0576 35.7715 41.3857 32.8996 41.3857C30.5499 41.3857 28.5642 39.8271 27.9198 37.6874ZM8.25342 4.87817H6.25342C5.70113 4.87817 5.25342 5.32589 5.25342 5.87817C5.25342 6.43046 5.70113 6.87817 6.25342 6.87817H8.25342C8.8057 6.87817 9.25342 6.43046 9.25342 5.87817C9.25342 5.32589 8.8057 4.87817 8.25342 4.87817ZM47.9155 18.2021H49.9155C50.4678 18.2021 50.9155 18.6499 50.9155 19.2021C50.9155 19.7544 50.4678 20.2021 49.9155 20.2021H47.9155C47.3632 20.2021 46.9155 19.7544 46.9155 19.2021C46.9155 18.6499 47.3632 18.2021 47.9155 18.2021ZM55.7334 18.2021H53.7334C53.1811 18.2021 52.7334 18.6499 52.7334 19.2021C52.7334 19.7544 53.1811 20.2021 53.7334 20.2021H55.7334C56.2857 20.2021 56.7334 19.7544 56.7334 19.2021C56.7334 18.6499 56.2857 18.2021 55.7334 18.2021ZM59.3633 18.2021H61.3633C61.9156 18.2021 62.3633 18.6499 62.3633 19.2021C62.3633 19.7544 61.9156 20.2021 61.3633 20.2021H59.3633C58.811 20.2021 58.3633 19.7544 58.3633 19.2021C58.3633 18.6499 58.811 18.2021 59.3633 18.2021ZM8.5 18.2021H6.5C5.94772 18.2021 5.5 18.6499 5.5 19.2021C5.5 19.7544 5.94772 20.2021 6.5 20.2021H8.5C9.05228 20.2021 9.5 19.7544 9.5 19.2021C9.5 18.6499 9.05228 18.2021 8.5 18.2021ZM11.5 18.2021H13.5C14.0523 18.2021 14.5 18.6499 14.5 19.2021C14.5 19.7544 14.0523 20.2021 13.5 20.2021H11.5C10.9477 20.2021 10.5 19.7544 10.5 19.2021C10.5 18.6499 10.9477 18.2021 11.5 18.2021ZM18.5 18.2021H16.5C15.9477 18.2021 15.5 18.6499 15.5 19.2021C15.5 19.7544 15.9477 20.2021 16.5 20.2021H18.5C19.0523 20.2021 19.5 19.7544 19.5 19.2021C19.5 18.6499 19.0523 18.2021 18.5 18.2021ZM11.3203 4.87817H13.3203C13.8726 4.87817 14.3203 5.32589 14.3203 5.87817C14.3203 6.43046 13.8726 6.87817 13.3203 6.87817H11.3203C10.768 6.87817 10.3203 6.43046 10.3203 5.87817C10.3203 5.32589 10.768 4.87817 11.3203 4.87817ZM18.3877 4.87817H16.3877C15.8354 4.87817 15.3877 5.32589 15.3877 5.87817C15.3877 6.43046 15.8354 6.87817 16.3877 6.87817H18.3877C18.94 6.87817 19.3877 6.43046 19.3877 5.87817C19.3877 5.32589 18.94 4.87817 18.3877 4.87817ZM8.44336 44C7.61493 44 6.94336 44.6716 6.94336 45.5C6.94336 46.3284 7.61493 47 8.44336 47H49.1672C49.9956 47 50.6672 46.3284 50.6672 45.5C50.6672 44.6716 49.9956 44 49.1672 44H8.44336ZM6.94336 51.5C6.94336 50.6716 7.61493 50 8.44336 50H38.8455C39.6739 50 40.3455 50.6716 40.3455 51.5C40.3455 52.3284 39.6739 53 38.8455 53H8.44336C7.61493 53 6.94336 52.3284 6.94336 51.5ZM70.5466 53.8657C71.2687 54.2719 71.5248 55.1865 71.1186 55.9085L66.0516 64.9165C65.8005 65.3628 65.3392 65.6502 64.8279 65.6788C64.3166 65.7074 63.8261 65.4732 63.5269 65.0576L60.1489 60.3659C59.6649 59.6936 59.8175 58.7562 60.4898 58.2721C61.1621 57.7881 62.0995 57.9407 62.5835 58.613L64.5887 61.398L68.5039 54.4377C68.91 53.7157 69.8246 53.4596 70.5466 53.8657ZM68.2998 25.5C68.2998 24.6716 67.6282 24 66.7998 24C65.9714 24 65.2998 24.6716 65.2998 25.5V27.5C65.2998 28.3284 65.9714 29 66.7998 29C67.6282 29 68.2998 28.3284 68.2998 27.5V25.5Z" fill="white"/>
</svg>
