<svg width="384" height="396" viewBox="0 0 384 396" fill="none" xmlns="http://www.w3.org/2000/svg">
<path fill-rule="evenodd" clip-rule="evenodd" d="M218.632 106.264C195.037 119.887 162.917 108.427 146.89 80.6675C130.863 52.9083 136.999 19.3616 160.594 5.73884C184.189 -7.88393 216.309 3.57591 232.336 31.3351C248.363 59.0943 242.227 92.641 218.632 106.264ZM280.733 109.562C293.239 131.223 318.303 140.165 336.715 129.535C355.126 118.905 359.914 92.7277 347.408 71.0666C334.902 49.4056 309.838 40.4632 291.426 51.0933C273.014 61.7234 268.227 87.9006 280.733 109.562ZM6.96713 253.42C19.4731 275.081 44.537 284.023 62.9489 273.393C81.3608 262.763 86.1485 236.586 73.6425 214.925C61.1365 193.263 36.0726 184.321 17.6607 194.951C-0.75119 205.581 -5.53888 231.758 6.96713 253.42ZM31.3538 142.087C47.732 170.455 80.5563 182.166 104.669 168.244C128.782 154.323 135.052 120.041 118.673 91.6727C102.295 63.3049 69.4709 51.5938 45.3583 65.5152C21.2457 79.4367 14.9756 113.719 31.3538 142.087ZM295.796 335.539C299.719 336.163 303.742 336.486 307.84 336.486C349.903 336.486 384.001 302.388 384.001 260.326C384.001 218.264 349.903 184.166 307.84 184.166C300.462 184.166 293.328 185.215 286.581 187.173C272.269 164.998 247.342 150.317 218.987 150.317C174.588 150.317 138.596 186.31 138.596 230.709C138.596 242.119 140.973 252.974 145.259 262.805C135.724 276.5 130.134 293.147 130.134 311.1C130.134 357.835 168.02 395.722 214.756 395.722C252.994 395.722 285.309 370.36 295.796 335.539Z" fill="#626D55"/>
</svg>
