<svg width="384" height="396" viewBox="0 0 384 396" fill="none" xmlns="http://www.w3.org/2000/svg">
<path fill-rule="evenodd" clip-rule="evenodd" d="M165.369 106.264C188.964 119.887 221.084 108.427 237.111 80.6675C253.138 52.9083 247.002 19.3616 223.407 5.73884C199.811 -7.88393 167.691 3.57591 151.665 31.3351C135.638 59.0943 141.773 92.641 165.369 106.264ZM103.268 109.562C90.7618 131.223 65.6979 140.165 47.286 129.535C28.8741 118.905 24.0864 92.7277 36.5924 71.0666C49.0984 49.4056 74.1624 40.4632 92.5742 51.0933C110.986 61.7234 115.774 87.9006 103.268 109.562ZM377.033 253.42C364.527 275.081 339.464 284.023 321.052 273.393C302.64 262.763 297.852 236.586 310.358 214.925C322.864 193.263 347.928 184.321 366.34 194.951C384.752 205.581 389.539 231.758 377.033 253.42ZM352.647 142.087C336.269 170.455 303.444 182.166 279.332 168.244C255.219 154.323 248.949 120.041 265.327 91.6727C281.705 63.3049 314.53 51.5938 338.642 65.5152C362.755 79.4367 369.025 113.719 352.647 142.087ZM88.205 335.539C84.2818 336.163 80.2588 336.486 76.1601 336.486C34.098 336.486 0 302.388 0 260.326C0 218.264 34.098 184.166 76.1601 184.166C83.5387 184.166 90.6722 185.215 97.4195 187.173C111.731 164.998 136.658 150.317 165.014 150.317C209.412 150.317 245.405 186.31 245.405 230.709C245.405 242.119 243.028 252.974 238.742 262.805C248.277 276.5 253.867 293.147 253.867 311.1C253.867 357.835 215.98 395.722 169.245 395.722C131.006 395.722 98.6916 370.36 88.205 335.539Z" fill="#BAA18B"/>
</svg>
