<svg width="74" height="73" viewBox="0 0 74 73" fill="none" xmlns="http://www.w3.org/2000/svg">
<path fill-rule="evenodd" clip-rule="evenodd" d="M45.3416 0H65.8736C69.8047 0 73.0028 3.19815 73.0028 7.12918V22.3856C73.0028 26.3167 69.8047 29.5148 65.8736 29.5148H51.6354L46.9676 34.1827C46.6948 34.4554 46.3303 34.6004 45.9591 34.6004C45.7755 34.6004 45.5901 34.5649 45.4137 34.4917C44.881 34.271 44.5336 33.751 44.5336 33.1744V29.4693C40.9814 29.067 38.2124 26.0436 38.2124 22.3856V7.12918C38.2124 3.19815 41.4106 0 45.3416 0ZM65.8736 26.6632C68.2323 26.6632 70.1512 24.7443 70.1512 22.3856V7.12918C70.1512 4.77057 68.2323 2.85167 65.8736 2.85167H45.3416C42.983 2.85167 41.0641 4.77057 41.0641 7.12918V22.3856C41.0641 24.7443 42.983 26.6632 45.3416 26.6632H45.9594C46.7467 26.6632 47.3852 27.3015 47.3852 28.089V29.7323L50.0367 27.0808C50.3042 26.8134 50.6668 26.6632 51.0449 26.6632H65.8736ZM53.1836 6.70142H63.877C64.6643 6.70142 65.3027 7.33974 65.3027 8.1272C65.3027 8.91466 64.6643 9.55298 63.877 9.55298H53.1836C52.3963 9.55298 51.7578 8.91466 51.7578 8.1272C51.7578 7.33974 52.3963 6.70142 53.1836 6.70142ZM62.4517 39.6379C62.4517 38.8504 63.0902 38.2121 63.8775 38.2121C64.6648 38.2121 65.3033 38.8505 65.3035 39.6379V53.9285C65.3035 56.1106 63.5249 57.8857 61.3389 57.8857H39.6413V64.4723C43.2381 64.8367 46.0545 67.8826 46.0545 71.5738C46.0545 72.3613 45.416 72.9996 44.6287 72.9996H20.6746C19.8873 72.9996 19.2488 72.3613 19.2488 71.5738C19.2488 67.8824 22.0653 64.8366 25.6622 64.4723V57.8857H3.96454C1.77859 57.8857 0 56.1106 0 53.9285V11.6536C0 9.47146 1.77859 7.69629 3.96454 7.69629H33.6023C34.3896 7.69629 35.0281 8.33464 35.0281 9.12213C35.0281 9.90962 34.3896 10.548 33.6023 10.548H3.96454C3.35086 10.548 2.85167 11.0439 2.85167 11.6536V45.9087H7.69952V42.3893C7.69952 36.9674 11.7766 32.4829 17.0255 31.8323C15.9881 30.552 15.365 28.9233 15.365 27.1511V21.7056C15.365 18.3911 18.0615 15.6945 21.376 15.6945H28.8363C29.6236 15.6945 30.2621 16.3329 30.2621 17.1204V27.1511C30.2621 28.9234 29.6389 30.5522 28.6016 31.8323C33.8502 32.4828 37.9273 36.9673 37.9273 42.3892V45.9086H62.4517V39.6379ZM21.3759 18.5465C19.6338 18.5465 18.2165 19.9638 18.2165 21.7058V22.874H25.3591C26.4902 22.874 27.4103 21.9539 27.4103 20.823V18.5465H21.3759ZM25.3592 25.7257H18.2165V27.1514C18.2165 29.6861 20.2787 31.7483 22.8134 31.7483C25.3481 31.7483 27.4103 29.6861 27.4103 27.1514H27.4104V25.2743C26.7859 25.5633 26.0914 25.7257 25.3592 25.7257ZM22.8134 36.2638L24.4772 34.6H21.1496L22.8134 36.2638ZM17.2007 34.6841C13.4442 35.2375 10.5512 38.4815 10.5512 42.3893V45.9087H35.0756V42.3893C35.0756 38.4815 32.1826 35.2375 28.4258 34.6841L23.8215 39.2884C23.543 39.5669 23.1781 39.706 22.8132 39.706C22.4484 39.706 22.0835 39.5669 21.805 39.2884L17.2007 34.6841ZM22.3442 70.1479H42.9589C42.37 68.483 40.7804 67.2873 38.9164 67.2873H38.2154H27.0881H26.3868C24.5227 67.2873 22.933 68.4831 22.3442 70.1479ZM28.5139 57.8857V64.4356H36.7896V57.8857H28.5139ZM61.3388 55.0341C61.9525 55.0341 62.4517 54.538 62.4517 53.9285V48.7604H2.85167V53.9285C2.85167 54.538 3.35086 55.0341 3.96454 55.0341H61.3388ZM32.6514 50.4705C33.0263 50.4705 33.3942 50.6216 33.6593 50.8882C33.9246 51.1534 34.0771 51.5213 34.0771 51.8962C34.0771 52.2712 33.9244 52.6391 33.6593 52.9043C33.3942 53.1695 33.0263 53.322 32.6514 53.322C32.2764 53.322 31.9085 53.1695 31.6433 52.9043C31.378 52.6391 31.2256 52.2712 31.2256 51.8962C31.2256 51.5198 31.3781 51.1534 31.6433 50.8882C31.9085 50.6216 32.2764 50.4705 32.6514 50.4705ZM64.8853 33.2591C64.6203 32.9939 64.2524 32.8413 63.8774 32.8413C63.5025 32.8413 63.1346 32.9939 62.8694 33.2591C62.6042 33.5257 62.4517 33.8921 62.4517 34.2671C62.4517 34.6435 62.6041 35.0099 62.8694 35.2751C63.1346 35.5417 63.5025 35.6929 63.8774 35.6929C64.2524 35.6929 64.6203 35.5417 64.8853 35.2751C65.1505 35.0099 65.3032 34.6435 65.3032 34.2671C65.3032 33.8921 65.1507 33.5243 64.8853 33.2591ZM48.3458 7.11917C48.0807 6.85397 47.7129 6.70142 47.3379 6.70142C46.9629 6.70142 46.5951 6.85397 46.3299 7.11917C46.0647 7.38437 45.9121 7.75222 45.9121 8.1272C45.9121 8.50218 46.0645 8.87003 46.3299 9.13523C46.5952 9.40042 46.9629 9.55298 47.3379 9.55298C47.7129 9.55298 48.0807 9.40042 48.3458 9.13523C48.611 8.87003 48.7637 8.50218 48.7637 8.1272C48.7637 7.75222 48.6111 7.38437 48.3458 7.11917ZM47.3379 12.9751H63.877C64.6643 12.9751 65.3027 13.6134 65.3027 14.4009C65.3027 15.1883 64.6643 15.8267 63.877 15.8267H47.3379C46.5506 15.8267 45.9121 15.1883 45.9121 14.4009C45.9121 13.6134 46.5506 12.9751 47.3379 12.9751ZM63.877 19.2488H47.3379C46.5506 19.2488 45.9121 19.8871 45.9121 20.6746C45.9121 21.462 46.5506 22.1003 47.3379 22.1003H63.877C64.6643 22.1003 65.3027 21.462 65.3027 20.6746C65.3027 19.8871 64.6643 19.2488 63.877 19.2488Z" fill="white"/>
</svg>
