<svg width="84" height="73" viewBox="0 0 84 73" fill="none" xmlns="http://www.w3.org/2000/svg">
<path fill-rule="evenodd" clip-rule="evenodd" d="M82.4405 13.7067C81.435 12.5363 79.963 11.8649 78.402 11.8649H74.6553C72.992 8.99431 69.8813 7.19134 66.454 7.19134H65.6791V1.60235C65.6791 0.717372 64.9474 0 64.0447 0C57.9523 0 52.9957 4.85928 52.9957 10.832V15.8392C52.9957 19.3242 51.0332 22.4819 47.8741 24.0799L42.5377 26.7794C41.7355 27.1853 41.4207 28.1517 41.8345 28.9381C42.1246 29.4895 42.696 29.8061 43.2884 29.8061C43.5407 29.8061 43.7968 29.7487 44.0364 29.6274L49.3729 26.928C53.6239 24.7776 56.2646 20.5287 56.2646 15.8394V10.8319C56.2646 7.1758 58.9025 4.11211 62.4102 3.37391V8.79369C62.4102 9.67867 63.1421 10.396 64.0447 10.396H66.454C68.939 10.396 71.1694 11.8463 72.1362 14.0907C72.3918 14.6841 72.9848 15.0698 73.6418 15.0698H78.402C78.9966 15.0698 79.5574 15.3255 79.9405 15.7714C80.3236 16.2174 80.4854 16.8026 80.3844 17.3772L79.7795 20.8171C79.3956 22.999 77.478 24.5824 75.2197 24.5824H67.9432C67.9329 24.5824 67.9228 24.5831 67.9128 24.5838C67.9088 24.5841 67.9049 24.5844 67.9009 24.5846C67.8981 24.5848 67.8953 24.5849 67.8925 24.585C67.8851 24.5848 67.8778 24.5843 67.8705 24.5838C67.8633 24.5833 67.856 24.5828 67.8487 24.5826C67.8464 24.5825 67.8441 24.5824 67.8418 24.5824C66.9393 24.5824 66.2074 25.2998 66.2074 26.1848V34.0195C66.2074 39.6873 65.0914 45.2135 62.8906 50.4447C62.7549 50.7669 62.7304 51.1238 62.8202 51.4611L66.8404 66.534C66.9107 66.7973 67.048 67.0386 67.2397 67.2354L68.6762 68.7102C68.9359 68.9768 68.8683 69.2608 68.8047 69.4061C68.7411 69.5516 68.5785 69.7958 68.2024 69.7958H62.7574L55.7332 51.9533V44.5434C55.7332 43.6584 55.0013 42.941 54.0988 42.941C53.196 42.941 52.4643 43.6584 52.4643 44.5434V52.2518C52.4643 52.4491 52.5014 52.6447 52.574 52.8288L59.2536 69.7955H53.504C52.715 64.7827 48.2847 60.9324 42.9541 60.9324H41.1093L40.3797 56.6881C39.5999 52.152 36.1301 48.6042 31.54 47.6499L28.4482 47.007C27.566 46.8235 26.6976 47.3764 26.5103 48.2419C26.323 49.1077 26.887 49.9582 27.7701 50.1418L30.8618 50.7847C34.1302 51.4643 36.6009 53.9905 37.1561 57.2205L37.7942 60.9322H27.7239C26.8213 60.9322 26.0894 61.6496 26.0894 62.5346C26.0894 63.4196 26.8213 64.1369 27.7239 64.1369H42.9541C46.4765 64.1369 49.4324 66.56 50.1784 69.7953H27.4568C19.2797 69.7953 12.627 63.2733 12.627 55.2567C12.627 49.2481 16.0104 43.8039 21.4571 41.0488L30.9676 36.2379C31.7696 35.8322 32.0844 34.8657 31.6706 34.0793C31.2567 33.2928 30.2703 32.984 29.4686 33.3901L19.9581 38.201C17.3489 39.5208 15.1357 41.3558 13.4161 43.5416C13.2355 42.7017 13.1436 41.8404 13.1436 40.9618C13.1436 36.4877 15.6164 32.3409 19.5967 30.1396C20.675 29.5433 21.1866 28.3488 20.87 27.1669C20.5367 25.9227 19.3967 25.0523 18.0931 25.0423C18.0855 25.0422 18.0783 25.0412 18.0708 25.0412C18.0683 25.0412 18.0657 25.0412 18.063 25.0412C18.0608 25.0412 18.0585 25.0413 18.0563 25.0414C18.0543 25.0414 18.0525 25.0417 18.0506 25.0417C8.29145 25.0523 0.197346 32.9321 0.00350096 42.6166C-0.131831 49.3742 3.66597 55.6701 9.726 58.8264C11.4159 66.905 18.724 73 27.4568 73H68.2025C69.7997 73 71.182 72.1057 71.8101 70.6662C72.4384 69.2266 72.1434 67.6289 71.0403 66.4964L69.8958 65.3217L66.1199 51.1648C68.3472 45.6931 69.4761 39.9275 69.4761 34.0193V27.787H75.2197C79.0734 27.787 82.3459 25.0846 83.0007 21.3614L83.6056 17.9213C83.871 16.4132 83.4464 14.877 82.4405 13.7067ZM3.2719 42.6795C3.42015 35.2741 9.17748 29.1535 16.423 28.3384C12.3437 31.259 9.87506 35.9468 9.87506 40.9618C9.87506 43.1215 10.3134 45.201 11.1776 47.1559C10.0588 49.5179 9.42706 52.1188 9.36577 54.8236C5.50439 52.0137 3.17563 47.489 3.2719 42.6795ZM68.1088 16.9723C68.4127 16.6742 68.5877 16.2608 68.5877 15.8394C68.5877 15.418 68.4128 15.0046 68.1088 14.7065C67.8048 14.4085 67.383 14.2371 66.9533 14.2371C66.5218 14.2371 66.1017 14.4085 65.7977 14.7065C65.4923 15.0046 65.3188 15.418 65.3188 15.8394C65.3188 16.2608 65.4923 16.6742 65.7977 16.9723C66.1017 17.2703 66.5234 17.4417 66.9533 17.4417C67.383 17.4417 67.8032 17.2703 68.1088 16.9723ZM37.9076 32.6431C37.602 32.9412 37.1821 33.111 36.7521 33.111C36.3208 33.111 35.8991 32.9412 35.5951 32.6431C35.2911 32.3451 35.1177 31.9317 35.1177 31.5103C35.1177 31.0873 35.2911 30.6739 35.5951 30.3758C35.8989 30.0778 36.3206 29.908 36.7521 29.908C37.1821 29.908 37.6036 30.0778 37.9076 30.3758C38.2118 30.6755 38.3865 31.0889 38.3865 31.5103C38.3865 31.9317 38.2117 32.3435 37.9076 32.6431Z" fill="white"/>
</svg>
