<svg width="72" height="72" viewBox="0 0 72 72" fill="none" xmlns="http://www.w3.org/2000/svg">
<path fill-rule="evenodd" clip-rule="evenodd" d="M32.2222 4C16.6355 4 4 16.6355 4 32.2222C4 47.8089 16.6355 60.4444 32.2222 60.4444C39.8821 60.4444 46.8292 57.3928 51.9142 52.439C51.9832 52.3381 52.0626 52.2421 52.1522 52.1524C52.2418 52.0628 52.3378 51.9835 52.4388 51.9144C57.3927 46.8294 60.4444 39.8822 60.4444 32.2222C60.4444 16.6355 47.8089 4 32.2222 4ZM56.3772 53.549C61.3976 47.8671 64.4444 40.4005 64.4444 32.2222C64.4444 14.4264 50.018 0 32.2222 0C14.4264 0 0 14.4264 0 32.2222C0 50.018 14.4264 64.4444 32.2222 64.4444C40.4003 64.4444 47.8669 61.3977 53.5487 56.3774L68.5855 71.4142C69.3666 72.1952 70.6329 72.1952 71.4139 71.4142C72.195 70.6331 72.195 69.3668 71.4139 68.5858L56.3772 53.549ZM30.7285 23.4666C32.8424 24.6871 35.7202 23.6604 37.1561 21.1733C38.592 18.6863 38.0423 15.6807 35.9283 14.4602C33.8143 13.2397 30.9366 14.2664 29.5007 16.7534C28.0648 19.2405 28.6145 22.2461 30.7285 23.4666ZM25.1637 23.7624C24.0432 25.7031 21.7976 26.5043 20.1481 25.5519C18.4985 24.5995 18.0695 22.2542 19.19 20.3135C20.3104 18.3728 22.556 17.5716 24.2056 18.524C25.8552 19.4764 26.2841 21.8217 25.1637 23.7624ZM49.6915 36.6508C48.571 38.5915 46.3255 39.3927 44.6759 38.4403C43.0263 37.4879 42.5973 35.1426 43.7178 33.2019C44.8383 31.2612 47.0838 30.4601 48.7334 31.4124C50.383 32.3648 50.812 34.7101 49.6915 36.6508ZM47.5072 26.6763C46.0398 29.2179 43.099 30.2672 40.9386 29.0199C38.7783 27.7726 38.2165 24.7011 39.6839 22.1596C41.1513 19.618 44.0921 18.5687 46.2525 19.816C48.4128 21.0633 48.9746 24.1348 47.5072 26.6763ZM23.8142 44.0087C23.4629 44.0645 23.1026 44.0935 22.7356 44.0935C18.9671 44.0935 15.9121 41.0385 15.9121 37.27C15.9121 33.5015 18.9671 30.4465 22.7356 30.4465C23.3964 30.4465 24.0353 30.5405 24.6396 30.7157C25.9219 28.7289 28.1552 27.4136 30.6957 27.4136C34.6736 27.4136 37.8983 30.6383 37.8983 34.6161C37.8983 35.6385 37.6853 36.6111 37.3012 37.4919C38.1555 38.719 38.6564 40.2105 38.6564 41.8189C38.6564 46.0062 35.262 49.4006 31.0748 49.4006C27.6489 49.4006 24.7538 47.1283 23.8142 44.0087Z" fill="white"/>
</svg>
